DavidHadashUpright-Bold_draw_a.ufo
<glyph name="exclam" format="1">
  <advance width="408"/>
  <unicode hex="0021"/>
  <outline>
    <contour>
      <point x="120" y="74" type="curve" smooth="yes"/>
      <point x="117" y="78"/>
      <point x="114" y="83"/>
      <point x="114" y="89" type="curve" smooth="yes"/>
      <point x="114" y="94"/>
      <point x="115" y="100"/>
      <point x="121" y="107" type="curve" smooth="yes"/>
      <point x="134" y="123"/>
      <point x="185" y="179"/>
      <point x="198" y="191" type="curve" smooth="yes"/>
      <point x="203" y="196"/>
      <point x="210" y="201"/>
      <point x="217" y="201" type="curve" smooth="yes"/>
      <point x="223" y="201"/>
      <point x="227" y="198"/>
      <point x="233" y="192" type="curve" smooth="yes"/>
      <point x="260" y="163"/>
      <point x="294" y="136"/>
      <point x="325" y="118" type="curve" smooth="yes"/>
      <point x="331" y="114"/>
      <point x="335" y="108"/>
      <point x="335" y="100" type="curve" smooth="yes"/>
      <point x="335" y="94"/>
      <point x="331" y="85"/>
      <point x="328" y="81" type="curve" smooth="yes"/>
      <point x="302" y="43"/>
      <point x="279" y="17"/>
      <point x="253" y="-8" type="curve" smooth="yes"/>
      <point x="249" y="-12"/>
      <point x="244" y="-16"/>
      <point x="238" y="-16" type="curve" smooth="yes"/>
      <point x="232" y="-16"/>
      <point x="227" y="-15"/>
      <point x="222" y="-12" type="curve" smooth="yes"/>
      <point x="181" y="9"/>
      <point x="145" y="40"/>
    </contour>
    <contour>
      <point x="152" y="451" type="curve" smooth="yes"/>
      <point x="146" y="504"/>
      <point x="144" y="557"/>
      <point x="144" y="611" type="curve" smooth="yes"/>
      <point x="144" y="623"/>
      <point x="152" y="637"/>
      <point x="160" y="646" type="curve" smooth="yes"/>
      <point x="166" y="654"/>
      <point x="205" y="697"/>
      <point x="234" y="715" type="curve" smooth="yes"/>
      <point x="244" y="721"/>
      <point x="253" y="726"/>
      <point x="265" y="726" type="curve" smooth="yes"/>
      <point x="280" y="726"/>
      <point x="282" y="713"/>
      <point x="283" y="707" type="curve" smooth="yes"/>
      <point x="287" y="680"/>
      <point x="291" y="572"/>
      <point x="291" y="508" type="curve" smooth="yes"/>
      <point x="291" y="480"/>
      <point x="286" y="382"/>
      <point x="285" y="363" type="curve" smooth="yes"/>
      <point x="284" y="353"/>
      <point x="283" y="343"/>
      <point x="278" y="335" type="curve" smooth="yes"/>
      <point x="269" y="319"/>
      <point x="244" y="281"/>
      <point x="209" y="255" type="curve" smooth="yes"/>
      <point x="205" y="252"/>
      <point x="202" y="250"/>
      <point x="197" y="250" type="curve" smooth="yes"/>
      <point x="195" y="250"/>
      <point x="190" y="251"/>
      <point x="187" y="263" type="curve" smooth="yes"/>
      <point x="176" y="309"/>
      <point x="158" y="398"/>
    </contour>
  </outline>
</glyph>
<glyph name="quotedbl" format="1">
  <advance width="563"/>
  <unicode hex="0022"/>
  <outline>
    <contour>
      <point x="170" y="275" type="curve" smooth="yes"/>
      <point x="159" y="275"/>
      <point x="150" y="284"/>
      <point x="148" y="292" type="curve" smooth="yes"/>
      <point x="141" y="324"/>
      <point x="117" y="436"/>
      <point x="111" y="519" type="curve" smooth="yes"/>
      <point x="109" y="539"/>
      <point x="109" y="560"/>
      <point x="109" y="584" type="curve" smooth="yes"/>
      <point x="109" y="599"/>
      <point x="116" y="616"/>
      <point x="131" y="616" type="curve" smooth="yes"/>
      <point x="209" y="616" type="line" smooth="yes"/>
      <point x="224" y="616"/>
      <point x="231" y="599"/>
      <point x="231" y="584" type="curve" smooth="yes"/>
      <point x="231" y="560"/>
      <point x="231" y="539"/>
      <point x="229" y="519" type="curve" smooth="yes"/>
      <point x="223" y="436"/>
      <point x="200" y="324"/>
      <point x="193" y="292" type="curve" smooth="yes"/>
      <point x="191" y="284"/>
      <point x="181" y="275"/>
    </contour>
    <contour>
      <point x="393" y="275" type="curve" smooth="yes"/>
      <point x="382" y="275"/>
      <point x="373" y="284"/>
      <point x="371" y="292" type="curve" smooth="yes"/>
      <point x="364" y="324"/>
      <point x="340" y="436"/>
      <point x="334" y="519" type="curve" smooth="yes"/>
      <point x="332" y="539"/>
      <point x="332" y="560"/>
      <point x="332" y="584" type="curve" smooth="yes"/>
      <point x="332" y="599"/>
      <point x="339" y="616"/>
      <point x="354" y="616" type="curve" smooth="yes"/>
      <point x="432" y="616" type="line" smooth="yes"/>
      <point x="447" y="616"/>
      <point x="454" y="599"/>
      <point x="454" y="584" type="curve" smooth="yes"/>
      <point x="454" y="560"/>
      <point x="454" y="539"/>
      <point x="452" y="519" type="curve" smooth="yes"/>
      <point x="446" y="436"/>
      <point x="423" y="324"/>
      <point x="416" y="292" type="curve" smooth="yes"/>
      <point x="414" y="284"/>
      <point x="404" y="275"/>
    </contour>
  </outline>
</glyph>
<glyph name="numbersign" format="1">
  <advance width="568"/>
  <unicode hex="0023"/>
  <outline>
    <contour>
      <point x="410" y="690" type="curve" smooth="yes"/>
      <point x="412" y="702"/>
      <point x="415" y="712"/>
      <point x="424" y="718" type="curve" smooth="yes"/>
      <point x="452" y="736" type="line" smooth="yes"/>
      <point x="459" y="740"/>
      <point x="465" y="745"/>
      <point x="470" y="745" type="curve" smooth="yes"/>
      <point x="474" y="745"/>
      <point x="477" y="743"/>
      <point x="477" y="737" type="curve" smooth="yes"/>
      <point x="477" y="728"/>
      <point x="470" y="702"/>
      <point x="465" y="680" type="curve" smooth="yes"/>
      <point x="454" y="636"/>
      <point x="429" y="541"/>
      <point x="429" y="540" type="curve" smooth="yes"/>
      <point x="429" y="537"/>
      <point x="431" y="536"/>
      <point x="434" y="536" type="curve" smooth="yes"/>
      <point x="547" y="536" type="line" smooth="yes"/>
      <point x="558" y="536"/>
      <point x="562" y="532"/>
      <point x="562" y="526" type="curve" smooth="yes"/>
      <point x="562" y="522"/>
      <point x="559" y="513"/>
      <point x="557" y="509" type="curve" smooth="yes"/>
      <point x="538" y="470"/>
      <point x="519" y="435"/>
      <point x="501" y="407" type="curve" smooth="yes"/>
      <point x="498" y="402"/>
      <point x="489" y="399"/>
      <point x="476" y="399" type="curve" smooth="yes"/>
      <point x="408" y="399" type="line" smooth="yes"/>
      <point x="400" y="399"/>
      <point x="398" y="397"/>
      <point x="397" y="391" type="curve" smooth="yes"/>
      <point x="376" y="306" type="line"/>
      <point x="376" y="303"/>
      <point x="377" y="301"/>
      <point x="381" y="301" type="curve" smooth="yes"/>
      <point x="495" y="301" type="line" smooth="yes"/>
      <point x="506" y="301"/>
      <point x="510" y="297"/>
      <point x="510" y="291" type="curve" smooth="yes"/>
      <point x="510" y="287"/>
      <point x="508" y="282"/>
      <point x="505" y="276" type="curve" smooth="yes"/>
      <point x="482" y="230"/>
      <point x="459" y="190"/>
      <point x="444" y="172" type="curve" smooth="yes"/>
      <point x="440" y="167"/>
      <point x="432" y="164"/>
      <point x="419" y="164" type="curve" smooth="yes"/>
      <point x="357" y="164" type="line" smooth="yes"/>
      <point x="349" y="164"/>
      <point x="349" y="159"/>
      <point x="348" y="157" type="curve" smooth="yes"/>
      <point x="337" y="103"/>
      <point x="329" y="64"/>
      <point x="318" y="16" type="curve" smooth="yes"/>
      <point x="315" y="1"/>
      <point x="310" y="-13"/>
      <point x="304" y="-21" type="curve" smooth="yes"/>
      <point x="304" y="-21"/>
      <point x="284" y="-41"/>
      <point x="273" y="-53" type="curve" smooth="yes"/>
      <point x="266" y="-60"/>
      <point x="260" y="-66"/>
      <point x="257" y="-66" type="curve" smooth="yes"/>
      <point x="250" y="-66"/>
      <point x="246" y="-62"/>
      <point x="246" y="-56" type="curve" smooth="yes"/>
      <point x="246" y="-52"/>
      <point x="251" y="-33"/>
      <point x="256" y="-16" type="curve" smooth="yes"/>
      <point x="272" y="39"/>
      <point x="305" y="156"/>
      <point x="305" y="160" type="curve" smooth="yes"/>
      <point x="305" y="162"/>
      <point x="304" y="164"/>
      <point x="299" y="164" type="curve" smooth="yes"/>
      <point x="175" y="164" type="line" smooth="yes"/>
      <point x="169" y="164"/>
      <point x="167" y="161"/>
      <point x="166" y="156" type="curve" smooth="yes"/>
      <point x="135" y="16" type="line" smooth="yes"/>
      <point x="132" y="1"/>
      <point x="127" y="-13"/>
      <point x="121" y="-21" type="curve"/>
      <point x="121" y="-21"/>
      <point x="101" y="-41"/>
      <point x="90" y="-53" type="curve" smooth="yes"/>
      <point x="83" y="-60"/>
      <point x="77" y="-66"/>
      <point x="74" y="-66" type="curve" smooth="yes"/>
      <point x="67" y="-66"/>
      <point x="63" y="-62"/>
      <point x="63" y="-56" type="curve" smooth="yes"/>
      <point x="63" y="-52"/>
      <point x="69" y="-29"/>
      <point x="73" y="-16" type="curve" smooth="yes"/>
      <point x="91" y="44"/>
      <point x="108" y="91"/>
      <point x="123" y="157" type="curve"/>
      <point x="123" y="160"/>
      <point x="122" y="164"/>
      <point x="117" y="164" type="curve" smooth="yes"/>
      <point x="7" y="164" type="line" smooth="yes"/>
      <point x="-4" y="164"/>
      <point x="-8" y="168"/>
      <point x="-8" y="173" type="curve" smooth="yes"/>
      <point x="-8" y="176"/>
      <point x="-7" y="179"/>
      <point x="-6" y="181" type="curve" smooth="yes"/>
      <point x="11" y="215"/>
      <point x="42" y="282"/>
      <point x="53" y="293" type="curve" smooth="yes"/>
      <point x="61" y="300"/>
      <point x="68" y="301"/>
      <point x="74" y="301" type="curve" smooth="yes"/>
      <point x="144" y="301" type="line" smooth="yes"/>
      <point x="151" y="301"/>
      <point x="152" y="305"/>
      <point x="152" y="307" type="curve" smooth="yes"/>
      <point x="163" y="355"/>
      <point x="162" y="342"/>
      <point x="172" y="393" type="curve" smooth="yes"/>
      <point x="172" y="396"/>
      <point x="170" y="399"/>
      <point x="167" y="399" type="curve" smooth="yes"/>
      <point x="65" y="399" type="line" smooth="yes"/>
      <point x="54" y="399"/>
      <point x="50" y="403"/>
      <point x="50" y="408" type="curve" smooth="yes"/>
      <point x="50" y="411"/>
      <point x="51" y="414"/>
      <point x="52" y="416" type="curve" smooth="yes"/>
      <point x="67" y="447"/>
      <point x="103" y="517"/>
      <point x="114" y="528" type="curve" smooth="yes"/>
      <point x="122" y="535"/>
      <point x="129" y="536"/>
      <point x="135" y="536" type="curve" smooth="yes"/>
      <point x="194" y="536" type="line" smooth="yes"/>
      <point x="199" y="536"/>
      <point x="202" y="539"/>
      <point x="203" y="544" type="curve" smooth="yes"/>
      <point x="229" y="690" type="line" smooth="yes"/>
      <point x="231" y="702"/>
      <point x="234" y="712"/>
      <point x="243" y="718" type="curve" smooth="yes"/>
      <point x="271" y="736" type="line" smooth="yes"/>
      <point x="278" y="740"/>
      <point x="284" y="745"/>
      <point x="289" y="745" type="curve" smooth="yes"/>
      <point x="293" y="745"/>
      <point x="296" y="743"/>
      <point x="296" y="737" type="curve" smooth="yes"/>
      <point x="296" y="728"/>
      <point x="289" y="706"/>
      <point x="285" y="689" type="curve" smooth="yes"/>
      <point x="250" y="541"/>
      <point x="250" y="540"/>
      <point x="250" y="540" type="curve"/>
      <point x="250" y="537"/>
      <point x="254" y="536"/>
      <point x="257" y="536" type="curve" smooth="yes"/>
      <point x="374" y="536" type="line" smooth="yes"/>
      <point x="379" y="536"/>
      <point x="382" y="541"/>
      <point x="383" y="544" type="curve" smooth="yes"/>
      <point x="393" y="598"/>
      <point x="401" y="638"/>
    </contour>
    <contour>
      <point x="195" y="305" type="line"/>
      <point x="195" y="302"/>
      <point x="197" y="301"/>
      <point x="202" y="301" type="curve" smooth="yes"/>
      <point x="321" y="301" type="line" smooth="yes"/>
      <point x="329" y="301"/>
      <point x="332" y="305"/>
      <point x="332" y="308" type="curve" smooth="yes"/>
      <point x="332" y="309"/>
      <point x="354" y="389"/>
      <point x="354" y="395" type="curve" smooth="yes"/>
      <point x="354" y="397"/>
      <point x="352" y="400"/>
      <point x="347" y="400" type="curve" smooth="yes"/>
      <point x="228" y="400" type="line" smooth="yes"/>
      <point x="224" y="400"/>
      <point x="220" y="397"/>
      <point x="219" y="392" type="curve" smooth="yes"/>
    </contour>
  </outline>
</glyph>
<glyph name="dollar" format="1">
  <advance width="567"/>
  <unicode hex="0024"/>
  <outline>
    <contour>
      <point x="116" y="157" type="curve" smooth="yes"/>
      <point x="118" y="159"/>
      <point x="121" y="161"/>
      <point x="123" y="161" type="curve" smooth="yes"/>
      <point x="127" y="161"/>
      <point x="131" y="161"/>
      <point x="137" y="158" type="curve" smooth="yes"/>
      <point x="161" y="146"/>
      <point x="211" y="127"/>
      <point x="237" y="127" type="curve" smooth="yes"/>
      <point x="241" y="127"/>
      <point x="244" y="127"/>
      <point x="244" y="136" type="curve" smooth="yes"/>
      <point x="244" y="206"/>
      <point x="245" y="188"/>
      <point x="245" y="258" type="curve" smooth="yes"/>
      <point x="245" y="262"/>
      <point x="243" y="265"/>
      <point x="239" y="267" type="curve" smooth="yes"/>
      <point x="197" y="292"/>
      <point x="137" y="320"/>
      <point x="99" y="345" type="curve" smooth="yes"/>
      <point x="59" y="371"/>
      <point x="44" y="422"/>
      <point x="44" y="470" type="curve" smooth="yes"/>
      <point x="44" y="511"/>
      <point x="68" y="559"/>
      <point x="97" y="598" type="curve" smooth="yes"/>
      <point x="127" y="639"/>
      <point x="157" y="667"/>
      <point x="225" y="691" type="curve" smooth="yes"/>
      <point x="231" y="693"/>
      <point x="234" y="695"/>
      <point x="234" y="701" type="curve" smooth="yes"/>
      <point x="234" y="721" type="line" smooth="yes"/>
      <point x="234" y="727"/>
      <point x="234" y="734"/>
      <point x="239" y="740" type="curve" smooth="yes"/>
      <point x="248" y="752"/>
      <point x="261" y="764"/>
      <point x="274" y="778" type="curve" smooth="yes"/>
      <point x="276" y="780"/>
      <point x="279" y="781"/>
      <point x="281" y="781" type="curve" smooth="yes"/>
      <point x="288" y="781"/>
      <point x="289" y="777"/>
      <point x="289" y="765" type="curve" smooth="yes"/>
      <point x="289" y="708" type="line"/>
      <point x="289" y="706"/>
      <point x="290" y="705"/>
      <point x="294" y="705" type="curve" smooth="yes"/>
      <point x="357" y="705"/>
      <point x="422" y="691"/>
      <point x="459" y="674" type="curve" smooth="yes"/>
      <point x="463" y="672"/>
      <point x="467" y="665"/>
      <point x="467" y="662" type="curve" smooth="yes"/>
      <point x="467" y="660"/>
      <point x="464" y="650"/>
      <point x="461" y="645" type="curve" smooth="yes"/>
      <point x="450" y="626"/>
      <point x="414" y="567"/>
      <point x="396" y="544" type="curve" smooth="yes"/>
      <point x="393" y="540"/>
      <point x="387" y="538"/>
      <point x="383" y="538" type="curve" smooth="yes"/>
      <point x="380" y="538"/>
      <point x="376" y="539"/>
      <point x="373" y="540" type="curve" smooth="yes"/>
      <point x="344" y="553"/>
      <point x="308" y="567"/>
      <point x="293" y="567" type="curve" smooth="yes"/>
      <point x="289" y="567"/>
      <point x="289" y="563"/>
      <point x="289" y="558" type="curve" smooth="yes"/>
      <point x="289" y="449" type="line" smooth="yes"/>
      <point x="290" y="443"/>
      <point x="290" y="438"/>
      <point x="295" y="435" type="curve" smooth="yes"/>
      <point x="335" y="411"/>
      <point x="372" y="391"/>
      <point x="419" y="363" type="curve" smooth="yes"/>
      <point x="467" y="334"/>
      <point x="490" y="287"/>
      <point x="490" y="220" type="curve" smooth="yes"/>
      <point x="490" y="168"/>
      <point x="451" y="94"/>
      <point x="386" y="35" type="curve" smooth="yes"/>
      <point x="364" y="15"/>
      <point x="343" y="2"/>
      <point x="306" y="-11" type="curve" smooth="yes"/>
      <point x="302" y="-12"/>
      <point x="298" y="-14"/>
      <point x="298" y="-20" type="curve" smooth="yes"/>
      <point x="298" y="-64"/>
      <point x="299" y="-88"/>
      <point x="300" y="-134" type="curve" smooth="yes"/>
      <point x="300" y="-147"/>
      <point x="298" y="-155"/>
      <point x="292" y="-162" type="curve" smooth="yes"/>
      <point x="280" y="-178"/>
      <point x="269" y="-190"/>
      <point x="256" y="-203" type="curve" smooth="yes"/>
      <point x="253" y="-206"/>
      <point x="250" y="-207"/>
      <point x="247" y="-207" type="curve" smooth="yes"/>
      <point x="240" y="-207"/>
      <point x="239" y="-199"/>
      <point x="239" y="-194" type="curve" smooth="yes"/>
      <point x="239" y="-141"/>
      <point x="243" y="-96"/>
      <point x="243" y="-42" type="curve" smooth="yes"/>
      <point x="243" y="-33"/>
      <point x="242" y="-21"/>
      <point x="232" y="-21" type="curve" smooth="yes"/>
      <point x="164" y="-21"/>
      <point x="112" y="-14"/>
      <point x="55" y="15" type="curve" smooth="yes"/>
      <point x="45" y="20"/>
      <point x="40" y="25"/>
      <point x="40" y="33" type="curve" smooth="yes"/>
      <point x="40" y="37"/>
      <point x="43" y="41"/>
      <point x="45" y="45" type="curve" smooth="yes"/>
      <point x="59" y="66"/>
      <point x="102" y="142"/>
    </contour>
    <contour>
      <point x="239" y="465" type="curve"/>
      <point x="241" y="465"/>
      <point x="241" y="481"/>
      <point x="241" y="481" type="curve"/>
      <point x="238" y="561" type="line"/>
      <point x="238" y="565"/>
      <point x="238" y="568"/>
      <point x="234" y="568" type="curve" smooth="yes"/>
      <point x="206" y="568"/>
      <point x="187" y="549"/>
      <point x="187" y="522" type="curve" smooth="yes"/>
      <point x="187" y="489"/>
      <point x="211" y="482"/>
      <point x="230" y="469" type="curve" smooth="yes"/>
      <point x="231" y="468"/>
      <point x="237" y="465"/>
    </contour>
    <contour>
      <point x="300" y="127" type="curve" smooth="yes"/>
      <point x="342" y="127"/>
      <point x="357" y="148"/>
      <point x="357" y="170" type="curve" smooth="yes"/>
      <point x="357" y="190"/>
      <point x="343" y="213"/>
      <point x="314" y="231" type="curve" smooth="yes"/>
      <point x="308" y="235"/>
      <point x="298" y="240"/>
      <point x="296" y="240" type="curve" smooth="yes"/>
      <point x="293" y="240"/>
      <point x="293" y="236"/>
      <point x="293" y="232" type="curve" smooth="yes"/>
      <point x="293" y="202"/>
      <point x="295" y="163"/>
      <point x="295" y="135" type="curve" smooth="yes"/>
      <point x="295" y="128"/>
      <point x="296" y="127"/>
    </contour>
  </outline>
</glyph>
<glyph name="parenright" format="1">
  <advance width="408"/>
  <unicode hex="0029"/>
  <outline>
    <contour>
      <point x="90" y="-98" type="curve" smooth="yes"/>
      <point x="133" y="-21"/>
      <point x="192" y="106"/>
      <point x="192" y="218" type="curve" smooth="yes"/>
      <point x="192" y="353"/>
      <point x="133" y="450"/>
      <point x="74" y="532" type="curve" smooth="yes"/>
      <point x="68" y="540"/>
      <point x="62" y="550"/>
      <point x="62" y="557" type="curve" smooth="yes"/>
      <point x="62" y="562"/>
      <point x="64" y="570"/>
      <point x="68" y="582" type="curve" smooth="yes"/>
      <point x="82" y="624"/>
      <point x="93" y="643"/>
      <point x="112" y="681" type="curve" smooth="yes"/>
      <point x="120" y="697"/>
      <point x="124" y="702"/>
      <point x="132" y="702" type="curve" smooth="yes"/>
      <point x="145" y="702"/>
      <point x="157" y="689"/>
      <point x="171" y="671" type="curve" smooth="yes"/>
      <point x="202" y="632"/>
      <point x="237" y="580"/>
      <point x="265" y="526" type="curve" smooth="yes"/>
      <point x="303" y="453"/>
      <point x="321" y="351"/>
      <point x="321" y="288" type="curve" smooth="yes"/>
      <point x="321" y="153"/>
      <point x="233" y="-14"/>
      <point x="188" y="-83" type="curve" smooth="yes"/>
      <point x="182" y="-92"/>
      <point x="176" y="-100"/>
      <point x="166" y="-110" type="curve" smooth="yes"/>
      <point x="149" y="-125"/>
      <point x="106" y="-151"/>
      <point x="89" y="-158" type="curve" smooth="yes"/>
      <point x="86" y="-159"/>
      <point x="82" y="-161"/>
      <point x="79" y="-161" type="curve" smooth="yes"/>
      <point x="72" y="-161"/>
      <point x="67" y="-157"/>
      <point x="67" y="-147" type="curve" smooth="yes"/>
      <point x="67" y="-131"/>
      <point x="80" y="-116"/>
    </contour>
  </outline>
</glyph>
<glyph name="four" format="1">
  <advance width="567"/>
  <unicode hex="0034"/>
  <outline>
    <contour>
      <point x="291" y="170" type="curve" smooth="yes"/>
      <point x="291" y="188"/>
      <point x="284" y="194"/>
      <point x="271" y="194" type="curve" smooth="yes"/>
      <point x="99" y="194" type="line"/>
      <point x="64" y="194"/>
      <point x="39" y="223"/>
      <point x="39" y="263" type="curve" smooth="yes"/>
      <point x="39" y="318"/>
      <point x="77" y="421"/>
      <point x="108" y="481" type="curve" smooth="yes"/>
      <point x="127" y="517"/>
      <point x="165" y="583"/>
      <point x="210" y="625" type="curve" smooth="yes"/>
      <point x="242" y="656"/>
      <point x="287" y="682"/>
      <point x="319" y="698" type="curve" smooth="yes"/>
      <point x="339" y="708"/>
      <point x="362" y="718"/>
      <point x="374" y="718" type="curve" smooth="yes"/>
      <point x="384" y="718"/>
      <point x="399" y="709"/>
      <point x="400" y="690" type="curve" smooth="yes"/>
      <point x="406" y="619"/>
      <point x="411" y="380"/>
      <point x="411" y="368" type="curve" smooth="yes"/>
      <point x="411" y="362"/>
      <point x="413" y="358"/>
      <point x="424" y="358" type="curve" smooth="yes"/>
      <point x="501" y="358" type="line"/>
      <point x="512" y="358"/>
      <point x="518" y="351"/>
      <point x="518" y="338" type="curve" smooth="yes"/>
      <point x="518" y="313"/>
      <point x="488" y="223"/>
      <point x="470" y="200" type="curve" smooth="yes"/>
      <point x="467" y="194"/>
      <point x="461" y="193"/>
      <point x="457" y="193" type="curve" smooth="yes"/>
      <point x="418" y="193" type="line"/>
      <point x="411" y="193"/>
      <point x="407" y="182"/>
      <point x="407" y="167" type="curve" smooth="yes"/>
      <point x="407" y="107" type="line" smooth="yes"/>
      <point x="407" y="98"/>
      <point x="406" y="87"/>
      <point x="400" y="77" type="curve" smooth="yes"/>
      <point x="379" y="41"/>
      <point x="353" y="6"/>
      <point x="331" y="-16" type="curve" smooth="yes"/>
      <point x="325" y="-22"/>
      <point x="322" y="-25"/>
      <point x="312" y="-25" type="curve" smooth="yes"/>
      <point x="303" y="-25"/>
      <point x="295" y="-19"/>
      <point x="295" y="9" type="curve" smooth="yes"/>
      <point x="295" y="35"/>
      <point x="291" y="144"/>
    </contour>
    <contour>
      <point x="197" y="358" type="curve" smooth="yes"/>
      <point x="267" y="358" type="line" smooth="yes"/>
      <point x="281" y="358"/>
      <point x="286" y="361"/>
      <point x="286" y="379" type="curve" smooth="yes"/>
      <point x="286" y="407"/>
      <point x="279" y="505"/>
      <point x="276" y="535" type="curve" smooth="yes"/>
      <point x="275" y="542"/>
      <point x="275" y="551"/>
      <point x="267" y="551" type="curve" smooth="yes"/>
      <point x="252" y="551"/>
      <point x="201" y="511"/>
      <point x="184" y="470" type="curve" smooth="yes"/>
      <point x="175" y="449"/>
      <point x="167" y="410"/>
      <point x="167" y="381" type="curve" smooth="yes"/>
      <point x="167" y="364"/>
      <point x="178" y="358"/>
    </contour>
  </outline>
</glyph>
<glyph name="semicolon" format="1">
  <advance width="408"/>
  <unicode hex="003B"/>
  <outline>
    <contour>
      <point x="98" y="-103" type="curve" smooth="yes"/>
      <point x="112" y="-64"/>
      <point x="138" y="0"/>
      <point x="146" y="42" type="curve" smooth="yes"/>
      <point x="152" y="76"/>
      <point x="154" y="106"/>
      <point x="154" y="124" type="curve" smooth="yes"/>
      <point x="154" y="134"/>
      <point x="158" y="140"/>
      <point x="163" y="147" type="curve" smooth="yes"/>
      <point x="177" y="166"/>
      <point x="223" y="209"/>
      <point x="251" y="226" type="curve" smooth="yes"/>
      <point x="258" y="230"/>
      <point x="266" y="234"/>
      <point x="275" y="234" type="curve" smooth="yes"/>
      <point x="285" y="233"/>
      <point x="300" y="201"/>
      <point x="300" y="158" type="curve" smooth="yes"/>
      <point x="300" y="104"/>
      <point x="285" y="57"/>
      <point x="242" y="-17" type="curve" smooth="yes"/>
      <point x="216" y="-61"/>
      <point x="174" y="-110"/>
      <point x="136" y="-137" type="curve" smooth="yes"/>
      <point x="124" y="-146"/>
      <point x="112" y="-150"/>
      <point x="101" y="-150" type="curve" smooth="yes"/>
      <point x="94" y="-150"/>
      <point x="88" y="-143"/>
      <point x="88" y="-136" type="curve" smooth="yes"/>
      <point x="88" y="-128"/>
      <point x="94" y="-114"/>
    </contour>
    <contour>
      <point x="114" y="361" type="curve" smooth="yes"/>
      <point x="111" y="365"/>
      <point x="107" y="372"/>
      <point x="107" y="377" type="curve" smooth="yes"/>
      <point x="107" y="382"/>
      <point x="108" y="388"/>
      <point x="114" y="395" type="curve" smooth="yes"/>
      <point x="127" y="411"/>
      <point x="179" y="467"/>
      <point x="192" y="479" type="curve" smooth="yes"/>
      <point x="197" y="483"/>
      <point x="204" y="488"/>
      <point x="211" y="488" type="curve" smooth="yes"/>
      <point x="217" y="488"/>
      <point x="221" y="486"/>
      <point x="227" y="480" type="curve" smooth="yes"/>
      <point x="255" y="451"/>
      <point x="288" y="423"/>
      <point x="319" y="405" type="curve" smooth="yes"/>
      <point x="325" y="401"/>
      <point x="329" y="395"/>
      <point x="329" y="387" type="curve" smooth="yes"/>
      <point x="329" y="381"/>
      <point x="326" y="373"/>
      <point x="323" y="369" type="curve" smooth="yes"/>
      <point x="296" y="331"/>
      <point x="272" y="304"/>
      <point x="247" y="279" type="curve" smooth="yes"/>
      <point x="243" y="275"/>
      <point x="238" y="271"/>
      <point x="232" y="271" type="curve" smooth="yes"/>
      <point x="227" y="271"/>
      <point x="222" y="272"/>
      <point x="216" y="275" type="curve" smooth="yes"/>
      <point x="176" y="296"/>
      <point x="139" y="327"/>
    </contour>
  </outline>
</glyph>
<glyph name="less" format="1">
  <advance width="568"/>
  <unicode hex="003C"/>
  <outline>
    <contour>
      <point x="69" y="364" type="line"/>
      <point x="69" y="374"/>
      <point x="72" y="376"/>
      <point x="78" y="379" type="curve" smooth="yes"/>
      <point x="78" y="379"/>
      <point x="218" y="441"/>
      <point x="277" y="469" type="curve" smooth="yes"/>
      <point x="328" y="493"/>
      <point x="446" y="551"/>
      <point x="446" y="551" type="curve" smooth="yes"/>
      <point x="450" y="553"/>
      <point x="454" y="554"/>
      <point x="458" y="554" type="curve" smooth="yes"/>
      <point x="463" y="554"/>
      <point x="467" y="552"/>
      <point x="472" y="542" type="curve" smooth="yes"/>
      <point x="497" y="489" type="line" smooth="yes"/>
      <point x="498" y="486"/>
      <point x="500" y="483"/>
      <point x="500" y="480" type="curve" smooth="yes"/>
      <point x="500" y="475"/>
      <point x="497" y="472"/>
      <point x="489" y="469" type="curve" smooth="yes"/>
      <point x="489" y="469"/>
      <point x="363" y="414"/>
      <point x="321" y="394" type="curve" smooth="yes"/>
      <point x="187" y="330" type="line"/>
      <point x="321" y="266" type="line" smooth="yes"/>
      <point x="363" y="246"/>
      <point x="489" y="191"/>
      <point x="489" y="191" type="curve" smooth="yes"/>
      <point x="497" y="188"/>
      <point x="499" y="184"/>
      <point x="499" y="179" type="curve" smooth="yes"/>
      <point x="499" y="176"/>
      <point x="498" y="174"/>
      <point x="497" y="171" type="curve" smooth="yes"/>
      <point x="469" y="113" type="line" smooth="yes"/>
      <point x="466" y="107"/>
      <point x="463" y="105"/>
      <point x="459" y="105" type="curve" smooth="yes"/>
      <point x="456" y="105"/>
      <point x="450" y="107"/>
      <point x="446" y="109" type="curve" smooth="yes"/>
      <point x="446" y="109"/>
      <point x="328" y="167"/>
      <point x="277" y="191" type="curve" smooth="yes"/>
      <point x="218" y="219"/>
      <point x="78" y="281"/>
      <point x="78" y="281" type="curve" smooth="yes"/>
      <point x="72" y="284"/>
      <point x="69" y="288"/>
      <point x="69" y="301" type="curve" smooth="yes"/>
    </contour>
  </outline>
</glyph>
<glyph name="backslash" format="1">
  <advance width="408"/>
  <unicode hex="005C"/>
  <outline>
    <contour>
      <point x="331" y="-93" type="line"/>
      <point x="336" y="-105"/>
      <point x="340" y="-110"/>
      <point x="345" y="-110" type="curve" smooth="yes"/>
      <point x="354" y="-110"/>
      <point x="358" y="-102"/>
      <point x="359" y="-96" type="curve" smooth="yes"/>
      <point x="362" y="-83"/>
      <point x="371" y="-32"/>
      <point x="371" y="-21" type="curve" smooth="yes"/>
      <point x="371" y="-11"/>
      <point x="366" y="-1"/>
      <point x="364" y="3" type="curve" smooth="yes"/>
      <point x="316" y="103"/>
      <point x="265" y="223"/>
      <point x="227" y="320" type="curve" smooth="yes"/>
      <point x="178" y="444"/>
      <point x="106" y="621"/>
      <point x="82" y="683" type="curve" smooth="yes"/>
      <point x="80" y="688"/>
      <point x="76" y="691"/>
      <point x="72" y="691" type="curve" smooth="yes"/>
      <point x="67" y="691"/>
      <point x="64" y="686"/>
      <point x="60" y="678" type="curve" smooth="yes"/>
      <point x="53" y="664"/>
      <point x="45" y="644"/>
      <point x="40" y="630" type="curve" smooth="yes"/>
      <point x="36" y="619"/>
      <point x="36" y="618"/>
      <point x="36" y="611" type="curve" smooth="yes"/>
      <point x="36" y="603"/>
      <point x="46" y="588"/>
      <point x="51" y="578" type="curve" smooth="yes"/>
      <point x="85" y="509"/>
      <point x="111" y="449"/>
      <point x="179" y="283" type="curve" smooth="yes"/>
    </contour>
  </outline>
</glyph>
<glyph name="plusminus" format="1">
  <advance width="568"/>
  <unicode hex="00B1"/>
  <outline>
    <contour>
      <point x="91" y="92" type="curve"/>
      <point x="78" y="92"/>
      <point x="75" y="86"/>
      <point x="75" y="76" type="curve" smooth="yes"/>
      <point x="75" y="17" type="line" smooth="yes"/>
      <point x="75" y="8"/>
      <point x="78" y="2"/>
      <point x="91" y="2" type="curve" smooth="yes"/>
      <point x="91" y="2"/>
      <point x="231" y="5"/>
      <point x="286" y="5" type="curve" smooth="yes"/>
      <point x="332" y="5"/>
      <point x="478" y="2"/>
      <point x="478" y="2" type="curve"/>
      <point x="491" y="2"/>
      <point x="494" y="8"/>
      <point x="494" y="17" type="curve" smooth="yes"/>
      <point x="494" y="76" type="line" smooth="yes"/>
      <point x="494" y="90"/>
      <point x="486" y="92"/>
      <point x="480" y="92" type="curve" smooth="yes"/>
      <point x="480" y="92"/>
      <point x="341" y="89"/>
      <point x="284" y="89" type="curve" smooth="yes"/>
      <point x="219" y="89"/>
      <point x="91" y="92"/>
    </contour>
    <contour>
      <point x="237" y="140" type="curve"/>
      <point x="237" y="127"/>
      <point x="243" y="124"/>
      <point x="253" y="124" type="curve" smooth="yes"/>
      <point x="312" y="124" type="line" smooth="yes"/>
      <point x="321" y="124"/>
      <point x="327" y="127"/>
      <point x="327" y="140" type="curve" smooth="yes"/>
      <point x="327" y="140"/>
      <point x="325" y="226"/>
      <point x="324" y="297" type="curve"/>
      <point x="378" y="296"/>
      <point x="478" y="294"/>
      <point x="478" y="294" type="curve"/>
      <point x="491" y="294"/>
      <point x="494" y="300"/>
      <point x="494" y="309" type="curve" smooth="yes"/>
      <point x="494" y="368" type="line" smooth="yes"/>
      <point x="494" y="382"/>
      <point x="489" y="384"/>
      <point x="480" y="384" type="curve" smooth="yes"/>
      <point x="480" y="384"/>
      <point x="386" y="381"/>
      <point x="324" y="381" type="curve"/>
      <point x="324" y="437"/>
      <point x="327" y="532"/>
      <point x="327" y="532" type="curve"/>
      <point x="327" y="545"/>
      <point x="321" y="548"/>
      <point x="312" y="548" type="curve" smooth="yes"/>
      <point x="253" y="548" type="line" smooth="yes"/>
      <point x="239" y="548"/>
      <point x="237" y="540"/>
      <point x="237" y="534" type="curve" smooth="yes"/>
      <point x="237" y="534"/>
      <point x="239" y="444"/>
      <point x="240" y="381" type="curve"/>
      <point x="168" y="382"/>
      <point x="90" y="384"/>
      <point x="90" y="384" type="curve"/>
      <point x="77" y="384"/>
      <point x="74" y="378"/>
      <point x="74" y="368" type="curve" smooth="yes"/>
      <point x="74" y="309" type="line" smooth="yes"/>
      <point x="74" y="300"/>
      <point x="77" y="294"/>
      <point x="90" y="294" type="curve" smooth="yes"/>
      <point x="90" y="294"/>
      <point x="170" y="296"/>
      <point x="240" y="297" type="curve"/>
      <point x="239" y="224"/>
      <point x="237" y="140"/>
    </contour>
  </outline>
</glyph>
<glyph name="periodcentered" format="1">
  <advance width="365"/>
  <unicode hex="00B7"/>
  <outline>
    <contour>
      <point x="119" y="227" type="curve" smooth="yes"/>
      <point x="116" y="231"/>
      <point x="113" y="236"/>
      <point x="113" y="242" type="curve" smooth="yes"/>
      <point x="113" y="247"/>
      <point x="114" y="253"/>
      <point x="120" y="260" type="curve" smooth="yes"/>
      <point x="133" y="276"/>
      <point x="184" y="332"/>
      <point x="197" y="344" type="curve" smooth="yes"/>
      <point x="202" y="349"/>
      <point x="209" y="354"/>
      <point x="216" y="354" type="curve" smooth="yes"/>
      <point x="222" y="354"/>
      <point x="226" y="351"/>
      <point x="232" y="345" type="curve" smooth="yes"/>
      <point x="259" y="316"/>
      <point x="293" y="289"/>
      <point x="324" y="271" type="curve" smooth="yes"/>
      <point x="331" y="267"/>
      <point x="335" y="261"/>
      <point x="335" y="253" type="curve" smooth="yes"/>
      <point x="335" y="247"/>
      <point x="331" y="238"/>
      <point x="328" y="234" type="curve" smooth="yes"/>
      <point x="301" y="196"/>
      <point x="278" y="169"/>
      <point x="253" y="144" type="curve" smooth="yes"/>
      <point x="249" y="140"/>
      <point x="243" y="136"/>
      <point x="237" y="136" type="curve" smooth="yes"/>
      <point x="231" y="136"/>
      <point x="226" y="137"/>
      <point x="221" y="140" type="curve" smooth="yes"/>
      <point x="180" y="161"/>
      <point x="144" y="193"/>
    </contour>
  </outline>
</glyph>
<glyph name="multiply" format="1">
  <advance width="568"/>
  <unicode hex="00D7"/>
  <outline>
    <contour>
      <point x="64" y="160" type="curve"/>
      <point x="60" y="156"/>
      <point x="58" y="152"/>
      <point x="58" y="149" type="curve" smooth="yes"/>
      <point x="58" y="145"/>
      <point x="60" y="142"/>
      <point x="64" y="138" type="curve" smooth="yes"/>
      <point x="106" y="96" type="line" smooth="yes"/>
      <point x="109" y="93"/>
      <point x="112" y="91"/>
      <point x="116" y="91" type="curve" smooth="yes"/>
      <point x="119" y="91"/>
      <point x="123" y="93"/>
      <point x="128" y="97" type="curve" smooth="yes"/>
      <point x="128" y="97"/>
      <point x="235" y="206"/>
      <point x="285" y="257" type="curve"/>
      <point x="322" y="218"/>
      <point x="438" y="102"/>
      <point x="438" y="102" type="curve"/>
      <point x="442" y="98"/>
      <point x="446" y="96"/>
      <point x="449" y="96" type="curve" smooth="yes"/>
      <point x="453" y="96"/>
      <point x="457" y="98"/>
      <point x="460" y="102" type="curve" smooth="yes"/>
      <point x="502" y="143" type="line" smooth="yes"/>
      <point x="507" y="148"/>
      <point x="509" y="152"/>
      <point x="509" y="155" type="curve" smooth="yes"/>
      <point x="509" y="158"/>
      <point x="507" y="161"/>
      <point x="503" y="165" type="curve" smooth="yes"/>
      <point x="503" y="165"/>
      <point x="388" y="273"/>
      <point x="344" y="317" type="curve"/>
      <point x="384" y="356"/>
      <point x="495" y="464"/>
      <point x="495" y="464" type="curve"/>
      <point x="499" y="469"/>
      <point x="501" y="473"/>
      <point x="501" y="476" type="curve" smooth="yes"/>
      <point x="501" y="480"/>
      <point x="499" y="483"/>
      <point x="496" y="486" type="curve" smooth="yes"/>
      <point x="454" y="528" type="line" smooth="yes"/>
      <point x="449" y="533"/>
      <point x="445" y="534"/>
      <point x="442" y="534" type="curve" smooth="yes"/>
      <point x="438" y="534"/>
      <point x="435" y="532"/>
      <point x="433" y="529" type="curve" smooth="yes"/>
      <point x="433" y="529"/>
      <point x="329" y="421"/>
      <point x="285" y="376" type="curve"/>
      <point x="235" y="428"/>
      <point x="140" y="527"/>
      <point x="140" y="527" type="curve"/>
      <point x="136" y="531"/>
      <point x="132" y="533"/>
      <point x="129" y="533" type="curve" smooth="yes"/>
      <point x="125" y="533"/>
      <point x="121" y="531"/>
      <point x="117" y="527" type="curve" smooth="yes"/>
      <point x="76" y="485" type="line" smooth="yes"/>
      <point x="72" y="482"/>
      <point x="70" y="478"/>
      <point x="70" y="474" type="curve" smooth="yes"/>
      <point x="70" y="471"/>
      <point x="72" y="467"/>
      <point x="76" y="463" type="curve" smooth="yes"/>
      <point x="76" y="463"/>
      <point x="175" y="365"/>
      <point x="225" y="317" type="curve"/>
      <point x="173" y="266"/>
      <point x="64" y="160"/>
    </contour>
  </outline>
</glyph>
<glyph name="afii57645" format="1">
  <advance width="405"/>
  <unicode hex="05BE"/>
  <outline>
    <contour>
      <point x="49" y="430" type="curve" smooth="yes"/>
      <point x="52" y="436"/>
      <point x="82" y="495"/>
      <point x="101" y="524" type="curve" smooth="yes"/>
      <point x="112" y="542"/>
      <point x="125" y="552"/>
      <point x="141" y="552" type="curve" smooth="yes"/>
      <point x="340" y="552" type="line"/>
      <point x="356" y="552"/>
      <point x="370" y="547"/>
      <point x="370" y="528" type="curve" smooth="yes"/>
      <point x="370" y="498"/>
      <point x="328" y="424"/>
      <point x="316" y="406" type="curve" smooth="yes"/>
      <point x="305" y="389"/>
      <point x="299" y="384"/>
      <point x="285" y="384" type="curve" smooth="yes"/>
      <point x="214" y="384"/>
      <point x="141" y="383"/>
      <point x="68" y="383" type="curve" smooth="yes"/>
      <point x="57" y="383"/>
      <point x="42" y="386"/>
      <point x="42" y="401" type="curve" smooth="yes"/>
      <point x="42" y="416"/>
      <point x="46" y="424"/>
    </contour>
  </outline>
</glyph>
<glyph name="gimelhebrew" format="1">
  <advance width="407"/>
  <unicode hex="05D2"/>
  <outline>
    <contour>
      <point x="44" y="110" type="curve" smooth="yes"/>
      <point x="47" y="120"/>
      <point x="53" y="127"/>
      <point x="61" y="131" type="curve" smooth="yes"/>
      <point x="86" y="146"/>
      <point x="124" y="166"/>
      <point x="160" y="196" type="curve" smooth="yes"/>
      <point x="182" y="215"/>
      <point x="211" y="242"/>
      <point x="211" y="257" type="curve" smooth="yes"/>
      <point x="211" y="270"/>
      <point x="197" y="318"/>
      <point x="193" y="328" type="curve" smooth="yes"/>
      <point x="188" y="342"/>
      <point x="176" y="356"/>
      <point x="165" y="367" type="curve" smooth="yes"/>
      <point x="140" y="392"/>
      <point x="84" y="432"/>
      <point x="47" y="456" type="curve" smooth="yes"/>
      <point x="44" y="458"/>
      <point x="41" y="462"/>
      <point x="41" y="466" type="curve" smooth="yes"/>
      <point x="41" y="468"/>
      <point x="42" y="472"/>
      <point x="45" y="477" type="curve" smooth="yes"/>
      <point x="71" y="520"/>
      <point x="93" y="553"/>
      <point x="125" y="593" type="curve" smooth="yes"/>
      <point x="129" y="598"/>
      <point x="137" y="603"/>
      <point x="141" y="603" type="curve" smooth="yes"/>
      <point x="143" y="603"/>
      <point x="145" y="602"/>
      <point x="148" y="601" type="curve" smooth="yes"/>
      <point x="173" y="588"/>
      <point x="228" y="549"/>
      <point x="254" y="519" type="curve" smooth="yes"/>
      <point x="274" y="496"/>
      <point x="293" y="455"/>
      <point x="301" y="425" type="curve" smooth="yes"/>
      <point x="314" y="377"/>
      <point x="329" y="285"/>
      <point x="341" y="190" type="curve" smooth="yes"/>
      <point x="343" y="173"/>
      <point x="345" y="160"/>
      <point x="345" y="150" type="curve" smooth="yes"/>
      <point x="345" y="143"/>
      <point x="345" y="134"/>
      <point x="343" y="125" type="curve" smooth="yes"/>
      <point x="338" y="94"/>
      <point x="314" y="18"/>
      <point x="299" y="-13" type="curve" smooth="yes"/>
      <point x="295" y="-21"/>
      <point x="288" y="-25"/>
      <point x="282" y="-25" type="curve" smooth="yes"/>
      <point x="277" y="-25"/>
      <point x="272" y="-20"/>
      <point x="271" y="-14" type="curve" smooth="yes"/>
      <point x="269" y="-2"/>
      <point x="233" y="173"/>
      <point x="230" y="183" type="curve" smooth="yes"/>
      <point x="229" y="185"/>
      <point x="229" y="188"/>
      <point x="227" y="188" type="curve" smooth="yes"/>
      <point x="223" y="188"/>
      <point x="220" y="182"/>
      <point x="219" y="178" type="curve" smooth="yes"/>
      <point x="214" y="152"/>
      <point x="197" y="104"/>
      <point x="194" y="95" type="curve" smooth="yes"/>
      <point x="188" y="78"/>
      <point x="171" y="49"/>
      <point x="156" y="36" type="curve" smooth="yes"/>
      <point x="126" y="10"/>
      <point x="59" y="-25"/>
      <point x="37" y="-25" type="curve" smooth="yes"/>
      <point x="24" y="-25"/>
      <point x="19" y="-22"/>
      <point x="19" y="-11" type="curve" smooth="yes"/>
      <point x="19" y="13"/>
      <point x="38" y="87"/>
    </contour>
  </outline>
</glyph>
<glyph name="dalethebrew" format="1">
  <advance width="567"/>
  <unicode hex="05D3"/>
  <outline>
    <contour>
      <point x="302" y="370" type="curve" smooth="yes"/>
      <point x="300" y="385"/>
      <point x="287" y="385"/>
      <point x="283" y="385" type="curve" smooth="yes"/>
      <point x="61" y="385" type="line"/>
      <point x="51" y="385"/>
      <point x="35" y="391"/>
      <point x="35" y="410" type="curve" smooth="yes"/>
      <point x="35" y="438"/>
      <point x="109" y="568"/>
      <point x="125" y="589" type="curve" smooth="yes"/>
      <point x="131" y="598"/>
      <point x="135" y="603"/>
      <point x="144" y="603" type="curve" smooth="yes"/>
      <point x="151" y="603"/>
      <point x="156" y="598"/>
      <point x="159" y="594" type="curve" smooth="yes"/>
      <point x="169" y="578"/>
      <point x="162" y="553"/>
      <point x="192" y="553" type="curve" smooth="yes"/>
      <point x="316" y="553" type="line"/>
      <point x="328" y="553"/>
      <point x="337" y="569"/>
      <point x="354" y="581" type="curve" smooth="yes"/>
      <point x="367" y="591"/>
      <point x="386" y="603"/>
      <point x="401" y="603" type="curve" smooth="yes"/>
      <point x="414" y="603"/>
      <point x="416" y="590"/>
      <point x="416" y="580" type="curve"/>
      <point x="416" y="560" type="line"/>
      <point x="416" y="555"/>
      <point x="420" y="553"/>
      <point x="428" y="553" type="curve"/>
      <point x="488" y="553" type="line"/>
      <point x="500" y="553"/>
      <point x="510" y="544"/>
      <point x="510" y="523" type="curve" smooth="yes"/>
      <point x="510" y="490"/>
      <point x="491" y="428"/>
      <point x="471" y="393" type="curve" smooth="yes"/>
      <point x="468" y="387"/>
      <point x="461" y="384"/>
      <point x="449" y="384" type="curve"/>
      <point x="436" y="384" type="line"/>
      <point x="427" y="384"/>
      <point x="424" y="375"/>
      <point x="424" y="370" type="curve" smooth="yes"/>
      <point x="429" y="256"/>
      <point x="430" y="225"/>
      <point x="431" y="143" type="curve" smooth="yes"/>
      <point x="431" y="130"/>
      <point x="430" y="120"/>
      <point x="425" y="103" type="curve" smooth="yes"/>
      <point x="415" y="69"/>
      <point x="373" y="5"/>
      <point x="353" y="-18" type="curve" smooth="yes"/>
      <point x="348" y="-23"/>
      <point x="343" y="-25"/>
      <point x="340" y="-25" type="curve" smooth="yes"/>
      <point x="329" y="-25"/>
      <point x="325" y="-13"/>
      <point x="324" y="-1" type="curve" smooth="yes"/>
      <point x="317" y="115"/>
      <point x="312" y="284"/>
    </contour>
  </outline>
</glyph>
<glyph name="hehebrew" format="1">
  <advance width="726"/>
  <unicode hex="05D4"/>
  <outline>
    <contour>
      <point x="487" y="331" type="curve" smooth="yes"/>
      <point x="485" y="350"/>
      <point x="473" y="388"/>
      <point x="425" y="388" type="curve"/>
      <point x="74" y="388" type="line"/>
      <point x="53" y="388"/>
      <point x="46" y="396"/>
      <point x="46" y="406" type="curve" smooth="yes"/>
      <point x="46" y="415"/>
      <point x="56" y="437"/>
      <point x="66" y="461" type="curve" smooth="yes"/>
      <point x="88" y="510"/>
      <point x="121" y="560"/>
      <point x="147" y="594" type="curve" smooth="yes"/>
      <point x="151" y="599"/>
      <point x="159" y="603"/>
      <point x="168" y="603" type="curve" smooth="yes"/>
      <point x="177" y="603"/>
      <point x="182" y="597"/>
      <point x="184" y="591" type="curve" smooth="yes"/>
      <point x="190" y="574"/>
      <point x="192" y="552"/>
      <point x="212" y="552" type="curve"/>
      <point x="491" y="552" type="line"/>
      <point x="561" y="552"/>
      <point x="594" y="500"/>
      <point x="602" y="440" type="curve" smooth="yes"/>
      <point x="610" y="384"/>
      <point x="614" y="258"/>
      <point x="614" y="118" type="curve" smooth="yes"/>
      <point x="614" y="111"/>
      <point x="613" y="103"/>
      <point x="611" y="97" type="curve" smooth="yes"/>
      <point x="603" y="72"/>
      <point x="564" y="6"/>
      <point x="538" y="-16" type="curve" smooth="yes"/>
      <point x="531" y="-22"/>
      <point x="525" y="-25"/>
      <point x="520" y="-25" type="curve" smooth="yes"/>
      <point x="512" y="-25"/>
      <point x="506" y="-16"/>
      <point x="506" y="2" type="curve" smooth="yes"/>
      <point x="504" y="118"/>
      <point x="495" y="250"/>
    </contour>
    <contour>
      <point x="124" y="196" type="curve" smooth="yes"/>
      <point x="124" y="208"/>
      <point x="127" y="215"/>
      <point x="132" y="225" type="curve" smooth="yes"/>
      <point x="142" y="246"/>
      <point x="169" y="289"/>
      <point x="190" y="313" type="curve" smooth="yes"/>
      <point x="201" y="325"/>
      <point x="210" y="334"/>
      <point x="219" y="334" type="curve" smooth="yes"/>
      <point x="231" y="334"/>
      <point x="231" y="325"/>
      <point x="232" y="320" type="curve" smooth="yes"/>
      <point x="238" y="295"/>
      <point x="248" y="151"/>
      <point x="248" y="119" type="curve" smooth="yes"/>
      <point x="248" y="109"/>
      <point x="247" y="102"/>
      <point x="242" y="88" type="curve" smooth="yes"/>
      <point x="231" y="55"/>
      <point x="184" y="-4"/>
      <point x="164" y="-21" type="curve" smooth="yes"/>
      <point x="160" y="-24"/>
      <point x="156" y="-25"/>
      <point x="153" y="-25" type="curve" smooth="yes"/>
      <point x="143" y="-25"/>
      <point x="143" y="-15"/>
      <point x="142" y="-8" type="curve" smooth="yes"/>
      <point x="135" y="39"/>
      <point x="124" y="166"/>
    </contour>
  </outline>
</glyph>
<glyph name="vavhebrew" format="1">
  <advance width="407"/>
  <unicode hex="05D5"/>
  <outline>
    <contour>
      <point x="182" y="310" type="curve" smooth="yes"/>
      <point x="179" y="330"/>
      <point x="163" y="365"/>
      <point x="138" y="387" type="curve" smooth="yes"/>
      <point x="103" y="418"/>
      <point x="75" y="435"/>
      <point x="64" y="444" type="curve" smooth="yes"/>
      <point x="60" y="447"/>
      <point x="57" y="451"/>
      <point x="57" y="457" type="curve" smooth="yes"/>
      <point x="57" y="461"/>
      <point x="58" y="465"/>
      <point x="61" y="470" type="curve" smooth="yes"/>
      <point x="87" y="516"/>
      <point x="120" y="567"/>
      <point x="156" y="598" type="curve" smooth="yes"/>
      <point x="160" y="601"/>
      <point x="164" y="602"/>
      <point x="168" y="602" type="curve" smooth="yes"/>
      <point x="171" y="602"/>
      <point x="174" y="601"/>
      <point x="178" y="599" type="curve" smooth="yes"/>
      <point x="206" y="584"/>
      <point x="261" y="520"/>
      <point x="275" y="497" type="curve" smooth="yes"/>
      <point x="285" y="481"/>
      <point x="306" y="449"/>
      <point x="312" y="376" type="curve" smooth="yes"/>
      <point x="317" y="324"/>
      <point x="318" y="264"/>
      <point x="318" y="214" type="curve" smooth="yes"/>
      <point x="318" y="184"/>
      <point x="318" y="156"/>
      <point x="317" y="133" type="curve" smooth="yes"/>
      <point x="316" y="116"/>
      <point x="317" y="104"/>
      <point x="308" y="83" type="curve" smooth="yes"/>
      <point x="296" y="54"/>
      <point x="263" y="7"/>
      <point x="245" y="-15" type="curve" smooth="yes"/>
      <point x="239" y="-22"/>
      <point x="232" y="-25"/>
      <point x="227" y="-25" type="curve" smooth="yes"/>
      <point x="216" y="-25"/>
      <point x="211" y="-9"/>
      <point x="210" y="7" type="curve" smooth="yes"/>
      <point x="207" y="90"/>
      <point x="191" y="258"/>
    </contour>
  </outline>
</glyph>
<glyph name="tethebrew" format="1">
  <advance width="726"/>
  <unicode hex="05D8"/>
  <outline>
    <contour>
      <point x="175" y="110" type="curve" smooth="yes"/>
      <point x="156" y="180"/>
      <point x="140" y="246"/>
      <point x="128" y="288" type="curve" smooth="yes"/>
      <point x="115" y="332"/>
      <point x="94" y="391"/>
      <point x="64" y="443" type="curve" smooth="yes"/>
      <point x="61" y="448"/>
      <point x="59" y="455"/>
      <point x="59" y="459" type="curve" smooth="yes"/>
      <point x="59" y="463"/>
      <point x="60" y="468"/>
      <point x="64" y="475" type="curve" smooth="yes"/>
      <point x="98" y="535"/>
      <point x="132" y="580"/>
      <point x="144" y="592" type="curve" smooth="yes"/>
      <point x="151" y="599"/>
      <point x="156" y="602"/>
      <point x="162" y="602" type="curve" smooth="yes"/>
      <point x="170" y="602"/>
      <point x="175" y="598"/>
      <point x="180" y="592" type="curve" smooth="yes"/>
      <point x="194" y="574"/>
      <point x="212" y="531"/>
      <point x="231" y="447" type="curve" smooth="yes"/>
      <point x="251" y="358"/>
      <point x="261" y="265"/>
      <point x="271" y="222" type="curve" smooth="yes"/>
      <point x="285" y="160"/>
      <point x="311" y="146"/>
      <point x="348" y="146" type="curve" smooth="yes"/>
      <point x="407" y="146"/>
      <point x="481" y="188"/>
      <point x="506" y="208" type="curve" smooth="yes"/>
      <point x="534" y="231"/>
      <point x="538" y="276"/>
      <point x="538" y="306" type="curve" smooth="yes"/>
      <point x="538" y="381"/>
      <point x="475" y="413"/>
      <point x="421" y="413" type="curve" smooth="yes"/>
      <point x="386" y="413"/>
      <point x="353" y="399"/>
      <point x="330" y="384" type="curve" smooth="yes"/>
      <point x="320" y="377"/>
      <point x="311" y="369"/>
      <point x="305" y="369" type="curve" smooth="yes"/>
      <point x="301" y="369"/>
      <point x="296" y="371"/>
      <point x="296" y="380" type="curve" smooth="yes"/>
      <point x="296" y="405"/>
      <point x="318" y="474"/>
      <point x="340" y="513" type="curve" smooth="yes"/>
      <point x="348" y="528"/>
      <point x="354" y="536"/>
      <point x="368" y="544" type="curve" smooth="yes"/>
      <point x="402" y="564"/>
      <point x="447" y="581"/>
      <point x="499" y="581" type="curve" smooth="yes"/>
      <point x="613" y="581"/>
      <point x="670" y="487"/>
      <point x="670" y="389" type="curve" smooth="yes"/>
      <point x="670" y="299"/>
      <point x="622" y="201"/>
      <point x="604" y="167" type="curve" smooth="yes"/>
      <point x="569" y="99"/>
      <point x="543" y="71"/>
      <point x="488" y="38" type="curve" smooth="yes"/>
      <point x="439" y="8"/>
      <point x="378" y="-20"/>
      <point x="307" y="-20" type="curve" smooth="yes"/>
      <point x="281" y="-20"/>
      <point x="247" y="-10"/>
      <point x="223" y="10" type="curve" smooth="yes"/>
      <point x="195" y="33"/>
      <point x="182" y="87"/>
    </contour>
  </outline>
</glyph>
<glyph name="yodhebrew" format="1">
  <advance width="407"/>
  <unicode hex="05D9"/>
  <outline>
    <contour>
      <point x="146" y="145" type="curve" smooth="yes"/>
      <point x="168" y="189"/>
      <point x="209" y="250"/>
      <point x="209" y="280" type="curve" smooth="yes"/>
      <point x="209" y="303"/>
      <point x="204" y="330"/>
      <point x="184" y="351" type="curve" smooth="yes"/>
      <point x="143" y="394"/>
      <point x="85" y="427"/>
      <point x="62" y="449" type="curve" smooth="yes"/>
      <point x="57" y="455"/>
      <point x="54" y="459"/>
      <point x="54" y="464" type="curve" smooth="yes"/>
      <point x="54" y="468"/>
      <point x="56" y="473"/>
      <point x="60" y="480" type="curve" smooth="yes"/>
      <point x="74" y="508"/>
      <point x="126" y="572"/>
      <point x="148" y="592" type="curve" smooth="yes"/>
      <point x="158" y="601"/>
      <point x="162" y="602"/>
      <point x="166" y="602" type="curve" smooth="yes"/>
      <point x="171" y="602"/>
      <point x="175" y="600"/>
      <point x="176" y="599" type="curve" smooth="yes"/>
      <point x="215" y="576"/>
      <point x="293" y="514"/>
      <point x="324" y="472" type="curve" smooth="yes"/>
      <point x="342" y="448"/>
      <point x="358" y="420"/>
      <point x="358" y="382" type="curve" smooth="yes"/>
      <point x="358" y="333"/>
      <point x="330" y="278"/>
      <point x="311" y="248" type="curve" smooth="yes"/>
      <point x="280" y="198"/>
      <point x="222" y="157"/>
      <point x="168" y="136" type="curve" smooth="yes"/>
      <point x="163" y="134"/>
      <point x="157" y="132"/>
      <point x="154" y="132" type="curve" smooth="yes"/>
      <point x="148" y="132"/>
      <point x="145" y="135"/>
      <point x="145" y="140" type="curve" smooth="yes"/>
      <point x="145" y="141"/>
      <point x="145" y="143"/>
    </contour>
  </outline>
</glyph>
<glyph name="finalkafhebrew" format="1">
  <advance width="567"/>
  <unicode hex="05DA"/>
  <outline>
    <contour>
      <point x="302" y="356" type="curve" smooth="yes"/>
      <point x="301" y="375"/>
      <point x="291" y="383"/>
      <point x="267" y="383" type="curve" smooth="yes"/>
      <point x="92" y="383" type="line"/>
      <point x="75" y="383"/>
      <point x="43" y="383"/>
      <point x="43" y="409" type="curve" smooth="yes"/>
      <point x="43" y="428"/>
      <point x="103" y="545"/>
      <point x="144" y="592" type="curve" smooth="yes"/>
      <point x="150" y="598"/>
      <point x="158" y="603"/>
      <point x="162" y="603" type="curve" smooth="yes"/>
      <point x="173" y="603"/>
      <point x="178" y="595"/>
      <point x="180" y="584" type="curve" smooth="yes"/>
      <point x="185" y="558"/>
      <point x="197" y="552"/>
      <point x="222" y="552" type="curve" smooth="yes"/>
      <point x="493" y="552" type="line"/>
      <point x="515" y="552"/>
      <point x="524" y="547"/>
      <point x="524" y="535" type="curve" smooth="yes"/>
      <point x="524" y="525"/>
      <point x="503" y="449"/>
      <point x="476" y="400" type="curve" smooth="yes"/>
      <point x="471" y="391"/>
      <point x="466" y="386"/>
      <point x="457" y="383" type="curve"/>
      <point x="434" y="375" type="line"/>
      <point x="426" y="371"/>
      <point x="422" y="363"/>
      <point x="422" y="354" type="curve" smooth="yes"/>
      <point x="422" y="251"/>
      <point x="429" y="79"/>
      <point x="429" y="-79" type="curve" smooth="yes"/>
      <point x="429" y="-97"/>
      <point x="429" y="-105"/>
      <point x="421" y="-125" type="curve" smooth="yes"/>
      <point x="413" y="-145"/>
      <point x="372" y="-208"/>
      <point x="351" y="-225" type="curve" smooth="yes"/>
      <point x="347" y="-228"/>
      <point x="343" y="-230"/>
      <point x="339" y="-230" type="curve" smooth="yes"/>
      <point x="332" y="-230"/>
      <point x="327" y="-226"/>
      <point x="326" y="-217" type="curve" smooth="yes"/>
      <point x="311" y="-37"/>
      <point x="311" y="157"/>
    </contour>
  </outline>
</glyph>
<glyph name="memhebrew" format="1">
  <advance width="726"/>
  <unicode hex="05DE"/>
  <outline>
    <contour>
      <point x="85" y="-7" type="curve" smooth="yes"/>
      <point x="85" y="5"/>
      <point x="113" y="105"/>
      <point x="126" y="154" type="curve" smooth="yes"/>
      <point x="138" y="195"/>
      <point x="154" y="260"/>
      <point x="154" y="295" type="curve" smooth="yes"/>
      <point x="154" y="310"/>
      <point x="149" y="326"/>
      <point x="145" y="336" type="curve" smooth="yes"/>
      <point x="136" y="360"/>
      <point x="108" y="405"/>
      <point x="81" y="438" type="curve" smooth="yes"/>
      <point x="77" y="443"/>
      <point x="74" y="446"/>
      <point x="74" y="451" type="curve" smooth="yes"/>
      <point x="74" y="454"/>
      <point x="75" y="459"/>
      <point x="78" y="465" type="curve" smooth="yes"/>
      <point x="89" y="486"/>
      <point x="128" y="546"/>
      <point x="168" y="596" type="curve" smooth="yes"/>
      <point x="172" y="601"/>
      <point x="178" y="603"/>
      <point x="182" y="603" type="curve" smooth="yes"/>
      <point x="187" y="603"/>
      <point x="191" y="600"/>
      <point x="196" y="594" type="curve" smooth="yes"/>
      <point x="227" y="557"/>
      <point x="251" y="508"/>
      <point x="262" y="479" type="curve" smooth="yes"/>
      <point x="273" y="447"/>
      <point x="282" y="399"/>
      <point x="282" y="397" type="curve" smooth="yes"/>
      <point x="282" y="396"/>
      <point x="283" y="395"/>
      <point x="284" y="395" type="curve" smooth="yes"/>
      <point x="286" y="395"/>
      <point x="288" y="396"/>
      <point x="289" y="399" type="curve" smooth="yes"/>
      <point x="305" y="434"/>
      <point x="334" y="503"/>
      <point x="366" y="534" type="curve" smooth="yes"/>
      <point x="396" y="563"/>
      <point x="427" y="577"/>
      <point x="468" y="577" type="curve" smooth="yes"/>
      <point x="519" y="577"/>
      <point x="570" y="549"/>
      <point x="608" y="495" type="curve" smooth="yes"/>
      <point x="658" y="426"/>
      <point x="666" y="326"/>
      <point x="666" y="259" type="curve" smooth="yes"/>
      <point x="666" y="223"/>
      <point x="665" y="198"/>
      <point x="662" y="174" type="curve" smooth="yes"/>
      <point x="657" y="126"/>
      <point x="630" y="56"/>
      <point x="606" y="17" type="curve" smooth="yes"/>
      <point x="597" y="3"/>
      <point x="589" y="0"/>
      <point x="573" y="0" type="curve" smooth="yes"/>
      <point x="288" y="0" type="line"/>
      <point x="277" y="0"/>
      <point x="268" y="2"/>
      <point x="268" y="16" type="curve" smooth="yes"/>
      <point x="268" y="18"/>
      <point x="273" y="32"/>
      <point x="278" y="43" type="curve" smooth="yes"/>
      <point x="296" y="83"/>
      <point x="326" y="137"/>
      <point x="343" y="158" type="curve" smooth="yes"/>
      <point x="348" y="164"/>
      <point x="351" y="168"/>
      <point x="365" y="168" type="curve" smooth="yes"/>
      <point x="532" y="168" type="line"/>
      <point x="541" y="168"/>
      <point x="548" y="170"/>
      <point x="548" y="179" type="curve" smooth="yes"/>
      <point x="548" y="213"/>
      <point x="541" y="246"/>
      <point x="536" y="274" type="curve" smooth="yes"/>
      <point x="531" y="300"/>
      <point x="517" y="341"/>
      <point x="497" y="366" type="curve" smooth="yes"/>
      <point x="476" y="391"/>
      <point x="440" y="407"/>
      <point x="405" y="407" type="curve" smooth="yes"/>
      <point x="345" y="407"/>
      <point x="315" y="372"/>
      <point x="286" y="318" type="curve" smooth="yes"/>
      <point x="262" y="271"/>
      <point x="243" y="217"/>
      <point x="230" y="172" type="curve" smooth="yes"/>
      <point x="226" y="158"/>
      <point x="224" y="149"/>
      <point x="217" y="135" type="curve" smooth="yes"/>
      <point x="200" y="101"/>
      <point x="150" y="32"/>
      <point x="112" y="-6" type="curve" smooth="yes"/>
      <point x="104" y="-14"/>
      <point x="97" y="-16"/>
      <point x="93" y="-16" type="curve" smooth="yes"/>
      <point x="88" y="-16"/>
      <point x="85" y="-12"/>
    </contour>
  </outline>
</glyph>
<glyph name="ayinhebrew" format="1">
  <advance width="567"/>
  <unicode hex="05E2"/>
  <outline>
    <contour>
      <point x="113" y="78" type="curve" smooth="yes"/>
      <point x="116" y="83"/>
      <point x="120" y="88"/>
      <point x="130" y="93" type="curve" smooth="yes"/>
      <point x="149" y="103"/>
      <point x="173" y="114"/>
      <point x="181" y="119" type="curve" smooth="yes"/>
      <point x="184" y="121"/>
      <point x="185" y="122"/>
      <point x="185" y="126" type="curve" smooth="yes"/>
      <point x="185" y="142"/>
      <point x="123" y="340"/>
      <point x="58" y="416" type="curve" smooth="yes"/>
      <point x="49" y="426"/>
      <point x="46" y="434"/>
      <point x="46" y="440" type="curve" smooth="yes"/>
      <point x="46" y="465"/>
      <point x="124" y="579"/>
      <point x="140" y="593" type="curve" smooth="yes"/>
      <point x="144" y="597"/>
      <point x="150" y="602"/>
      <point x="159" y="602" type="curve" smooth="yes"/>
      <point x="168" y="602"/>
      <point x="173" y="594"/>
      <point x="178" y="583" type="curve" smooth="yes"/>
      <point x="231" y="461"/>
      <point x="270" y="282"/>
      <point x="289" y="187" type="curve" smooth="yes"/>
      <point x="290" y="182"/>
      <point x="292" y="179"/>
      <point x="295" y="179" type="curve" smooth="yes"/>
      <point x="297" y="179"/>
      <point x="301" y="181"/>
      <point x="306" y="184" type="curve" smooth="yes"/>
      <point x="320" y="192"/>
      <point x="370" y="222"/>
      <point x="384" y="235" type="curve" smooth="yes"/>
      <point x="394" y="244"/>
      <point x="402" y="254"/>
      <point x="402" y="274" type="curve" smooth="yes"/>
      <point x="402" y="299"/>
      <point x="376" y="384"/>
      <point x="360" y="417" type="curve" smooth="yes"/>
      <point x="355" y="427"/>
      <point x="344" y="444"/>
      <point x="344" y="457" type="curve" smooth="yes"/>
      <point x="344" y="479"/>
      <point x="418" y="577"/>
      <point x="434" y="595" type="curve" smooth="yes"/>
      <point x="436" y="598"/>
      <point x="444" y="602"/>
      <point x="450" y="602" type="curve" smooth="yes"/>
      <point x="456" y="602"/>
      <point x="464" y="598"/>
      <point x="469" y="591" type="curve" smooth="yes"/>
      <point x="488" y="561"/>
      <point x="511" y="458"/>
      <point x="511" y="400" type="curve" smooth="yes"/>
      <point x="511" y="353"/>
      <point x="505" y="337"/>
      <point x="504" y="326" type="curve" smooth="yes"/>
      <point x="498" y="290"/>
      <point x="456" y="170"/>
      <point x="427" y="124" type="curve" smooth="yes"/>
      <point x="407" y="91"/>
      <point x="383" y="71"/>
      <point x="347" y="47" type="curve" smooth="yes"/>
      <point x="327" y="34"/>
      <point x="189" y="-44"/>
      <point x="107" y="-78" type="curve" smooth="yes"/>
      <point x="85" y="-87"/>
      <point x="76" y="-90"/>
      <point x="70" y="-90" type="curve" smooth="yes"/>
      <point x="61" y="-90"/>
      <point x="56" y="-85"/>
      <point x="56" y="-76" type="curve" smooth="yes"/>
      <point x="56" y="-63"/>
      <point x="93" y="44"/>
    </contour>
  </outline>
</glyph>
<glyph name="pehebrew" format="1">
  <advance width="567"/>
  <unicode hex="05E4"/>
  <outline>
    <contour>
      <point x="101" y="152" type="curve" smooth="yes"/>
      <point x="107" y="161"/>
      <point x="114" y="168"/>
      <point x="127" y="168" type="curve"/>
      <point x="364" y="168" type="line"/>
      <point x="378" y="168"/>
      <point x="385" y="176"/>
      <point x="385" y="192" type="curve" smooth="yes"/>
      <point x="385" y="215"/>
      <point x="379" y="283"/>
      <point x="366" y="326" type="curve" smooth="yes"/>
      <point x="362" y="339"/>
      <point x="353" y="354"/>
      <point x="339" y="370" type="curve" smooth="yes"/>
      <point x="304" y="409"/>
      <point x="232" y="438"/>
      <point x="211" y="438" type="curve" smooth="yes"/>
      <point x="199" y="438"/>
      <point x="195" y="421"/>
      <point x="195" y="408" type="curve" smooth="yes"/>
      <point x="195" y="393"/>
      <point x="209" y="366"/>
      <point x="237" y="353" type="curve" smooth="yes"/>
      <point x="250" y="348"/>
      <point x="256" y="341"/>
      <point x="256" y="334" type="curve" smooth="yes"/>
      <point x="256" y="330"/>
      <point x="254" y="327"/>
      <point x="252" y="323" type="curve" smooth="yes"/>
      <point x="241" y="300"/>
      <point x="206" y="244"/>
      <point x="194" y="230" type="curve" smooth="yes"/>
      <point x="189" y="224"/>
      <point x="181" y="221"/>
      <point x="176" y="221" type="curve" smooth="yes"/>
      <point x="172" y="221"/>
      <point x="165" y="225"/>
      <point x="157" y="230" type="curve" smooth="yes"/>
      <point x="127" y="251"/>
      <point x="74" y="287"/>
      <point x="74" y="352" type="curve" smooth="yes"/>
      <point x="74" y="382"/>
      <point x="85" y="414"/>
      <point x="101" y="446" type="curve" smooth="yes"/>
      <point x="126" y="494"/>
      <point x="193" y="571"/>
      <point x="230" y="594" type="curve" smooth="yes"/>
      <point x="232" y="595"/>
      <point x="239" y="602"/>
      <point x="250" y="602" type="curve" smooth="yes"/>
      <point x="273" y="602"/>
      <point x="378" y="556"/>
      <point x="420" y="518" type="curve" smooth="yes"/>
      <point x="443" y="497"/>
      <point x="476" y="467"/>
      <point x="487" y="389" type="curve" smooth="yes"/>
      <point x="496" y="326"/>
      <point x="497" y="261"/>
      <point x="497" y="228" type="curve" smooth="yes"/>
      <point x="497" y="199"/>
      <point x="492" y="172"/>
      <point x="485" y="148" type="curve" smooth="yes"/>
      <point x="475" y="115"/>
      <point x="450" y="46"/>
      <point x="427" y="11" type="curve" smooth="yes"/>
      <point x="422" y="3"/>
      <point x="416" y="0"/>
      <point x="406" y="0" type="curve"/>
      <point x="61" y="0" type="line"/>
      <point x="46" y="0"/>
      <point x="42" y="6"/>
      <point x="42" y="13" type="curve" smooth="yes"/>
      <point x="42" y="40"/>
      <point x="79" y="119"/>
    </contour>
  </outline>
</glyph>
<glyph name="uni05F4" format="1">
  <advance width="398"/>
  <unicode hex="05F4"/>
  <outline>
    <contour>
      <point x="35" y="487" type="curve" smooth="yes"/>
      <point x="45" y="516"/>
      <point x="73" y="582"/>
      <point x="126" y="656" type="curve" smooth="yes"/>
      <point x="134" y="667"/>
      <point x="142" y="673"/>
      <point x="150" y="673" type="curve" smooth="yes"/>
      <point x="189" y="673" type="line"/>
      <point x="198" y="673"/>
      <point x="206" y="670"/>
      <point x="206" y="657" type="curve" smooth="yes"/>
      <point x="206" y="639"/>
      <point x="203" y="619"/>
      <point x="200" y="604" type="curve" smooth="yes"/>
      <point x="196" y="587"/>
      <point x="194" y="583"/>
      <point x="178" y="554" type="curve" smooth="yes"/>
      <point x="165" y="528"/>
      <point x="78" y="444"/>
      <point x="46" y="444" type="curve" smooth="yes"/>
      <point x="40" y="444"/>
      <point x="27" y="449"/>
      <point x="27" y="460" type="curve" smooth="yes"/>
      <point x="27" y="468"/>
      <point x="32" y="477"/>
    </contour>
    <contour>
      <point x="193" y="485" type="curve" smooth="yes"/>
      <point x="203" y="514"/>
      <point x="233" y="583"/>
      <point x="286" y="657" type="curve" smooth="yes"/>
      <point x="294" y="668"/>
      <point x="302" y="674"/>
      <point x="310" y="674" type="curve" smooth="yes"/>
      <point x="350" y="674" type="line"/>
      <point x="359" y="674"/>
      <point x="367" y="671"/>
      <point x="367" y="658" type="curve" smooth="yes"/>
      <point x="367" y="640"/>
      <point x="364" y="620"/>
      <point x="361" y="605" type="curve" smooth="yes"/>
      <point x="357" y="588"/>
      <point x="353" y="577"/>
      <point x="339" y="555" type="curve" smooth="yes"/>
      <point x="324" y="530"/>
      <point x="237" y="442"/>
      <point x="205" y="442" type="curve" smooth="yes"/>
      <point x="199" y="442"/>
      <point x="186" y="447"/>
      <point x="186" y="458" type="curve" smooth="yes"/>
      <point x="186" y="466"/>
      <point x="190" y="475"/>
    </contour>
  </outline>
</glyph>
<glyph name="bullet" format="1">
  <advance width="363"/>
  <unicode hex="2022"/>
  <outline>
    <contour>
      <point x="54" y="246" type="curve" smooth="yes"/>
      <point x="51" y="251"/>
      <point x="47" y="256"/>
      <point x="47" y="263" type="curve" smooth="yes"/>
      <point x="47" y="269"/>
      <point x="48" y="276"/>
      <point x="55" y="284" type="curve" smooth="yes"/>
      <point x="70" y="302"/>
      <point x="129" y="366"/>
      <point x="143" y="380" type="curve" smooth="yes"/>
      <point x="149" y="385"/>
      <point x="157" y="391"/>
      <point x="165" y="391" type="curve" smooth="yes"/>
      <point x="172" y="391"/>
      <point x="176" y="388"/>
      <point x="183" y="381" type="curve" smooth="yes"/>
      <point x="215" y="348"/>
      <point x="253" y="317"/>
      <point x="288" y="296" type="curve" smooth="yes"/>
      <point x="296" y="292"/>
      <point x="300" y="285"/>
      <point x="300" y="276" type="curve" smooth="yes"/>
      <point x="300" y="269"/>
      <point x="296" y="259"/>
      <point x="293" y="254" type="curve" smooth="yes"/>
      <point x="262" y="211"/>
      <point x="236" y="180"/>
      <point x="207" y="151" type="curve" smooth="yes"/>
      <point x="202" y="147"/>
      <point x="195" y="142"/>
      <point x="189" y="142" type="curve" smooth="yes"/>
      <point x="182" y="142"/>
      <point x="176" y="143"/>
      <point x="170" y="147" type="curve" smooth="yes"/>
      <point x="124" y="171"/>
      <point x="82" y="207"/>
    </contour>
  </outline>
</glyph>
<glyph name="ampersant.salt" format="1">
  <advance width="732"/>
  <outline>
    <contour>
      <point x="602" y="598" type="curve" smooth="yes"/>
      <point x="580" y="574"/>
      <point x="553" y="543"/>
      <point x="540" y="522" type="curve" smooth="yes"/>
      <point x="537" y="518"/>
      <point x="533" y="511"/>
      <point x="533" y="506" type="curve" smooth="yes"/>
      <point x="533" y="498"/>
      <point x="537" y="494"/>
      <point x="542" y="486" type="curve" smooth="yes"/>
      <point x="560" y="460"/>
      <point x="570" y="436"/>
      <point x="570" y="416" type="curve" smooth="yes"/>
      <point x="570" y="404"/>
      <point x="568" y="400"/>
      <point x="565" y="400" type="curve" smooth="yes"/>
      <point x="564" y="400"/>
      <point x="559" y="403"/>
      <point x="559" y="403" type="curve" smooth="yes"/>
      <point x="420" y="523"/>
      <point x="166" y="600"/>
      <point x="112" y="600" type="curve" smooth="yes"/>
      <point x="107" y="600"/>
      <point x="99" y="591"/>
      <point x="94" y="585" type="curve" smooth="yes"/>
      <point x="77" y="564"/>
      <point x="56" y="538"/>
      <point x="36" y="505" type="curve" smooth="yes"/>
      <point x="32" y="498"/>
      <point x="29" y="490"/>
      <point x="29" y="487" type="curve" smooth="yes"/>
      <point x="29" y="481"/>
      <point x="33" y="479"/>
      <point x="38" y="479" type="curve" smooth="yes"/>
      <point x="62" y="477"/>
      <point x="96" y="473"/>
      <point x="127" y="465" type="curve"/>
      <point x="152" y="405"/>
      <point x="173" y="344"/>
      <point x="173" y="313" type="curve" smooth="yes"/>
      <point x="173" y="303"/>
      <point x="168" y="297"/>
      <point x="158" y="291" type="curve" smooth="yes"/>
      <point x="133" y="276"/>
      <point x="122" y="270"/>
      <point x="93" y="261" type="curve" smooth="yes"/>
      <point x="83" y="258"/>
      <point x="81" y="252"/>
      <point x="78" y="242" type="curve" smooth="yes"/>
      <point x="72" y="222"/>
      <point x="58" y="169"/>
      <point x="51" y="153" type="curve" smooth="yes"/>
      <point x="44" y="138"/>
      <point x="28" y="96"/>
      <point x="28" y="65" type="curve" smooth="yes"/>
      <point x="28" y="-26"/>
      <point x="168" y="-45"/>
      <point x="260" y="-45" type="curve" smooth="yes"/>
      <point x="400" y="-45"/>
      <point x="516" y="-20"/>
      <point x="594" y="4" type="curve" smooth="yes"/>
      <point x="610" y="9"/>
      <point x="643" y="19"/>
      <point x="651" y="34" type="curve" smooth="yes"/>
      <point x="660" y="50"/>
      <point x="684" y="115"/>
      <point x="692" y="138" type="curve" smooth="yes"/>
      <point x="693" y="141"/>
      <point x="694" y="146"/>
      <point x="694" y="148" type="curve" smooth="yes"/>
      <point x="694" y="151"/>
      <point x="693" y="154"/>
      <point x="690" y="154" type="curve" smooth="yes"/>
      <point x="688" y="154"/>
      <point x="681" y="151"/>
      <point x="679" y="150" type="curve" smooth="yes"/>
      <point x="641" y="134"/>
      <point x="486" y="77"/>
      <point x="283" y="77" type="curve" smooth="yes"/>
      <point x="205" y="77"/>
      <point x="98" y="92"/>
      <point x="98" y="126" type="curve" smooth="yes"/>
      <point x="98" y="133"/>
      <point x="109" y="136"/>
      <point x="114" y="137" type="curve" smooth="yes"/>
      <point x="139" y="142"/>
      <point x="165" y="152"/>
      <point x="184" y="161" type="curve" smooth="yes"/>
      <point x="203" y="171"/>
      <point x="219" y="197"/>
      <point x="226" y="215" type="curve" smooth="yes"/>
      <point x="233" y="233"/>
      <point x="235" y="246"/>
      <point x="245" y="286" type="curve" smooth="yes"/>
      <point x="248" y="297"/>
      <point x="249" y="313"/>
      <point x="249" y="345" type="curve" smooth="yes"/>
      <point x="249" y="350"/>
      <point x="249" y="360"/>
      <point x="248" y="364" type="curve" smooth="yes"/>
      <point x="244" y="381"/>
      <point x="238" y="409"/>
      <point x="229" y="437" type="curve"/>
      <point x="262" y="426"/>
      <point x="305" y="410"/>
      <point x="335" y="393" type="curve"/>
      <point x="364" y="313"/>
      <point x="378" y="233"/>
      <point x="390" y="160" type="curve" smooth="yes"/>
      <point x="391" y="152"/>
      <point x="398" y="149"/>
      <point x="401" y="149" type="curve" smooth="yes"/>
      <point x="410" y="149"/>
      <point x="417" y="161"/>
      <point x="420" y="168" type="curve" smooth="yes"/>
      <point x="433" y="194"/>
      <point x="438" y="209"/>
      <point x="447" y="232" type="curve" smooth="yes"/>
      <point x="451" y="243"/>
      <point x="454" y="252"/>
      <point x="454" y="259" type="curve" smooth="yes"/>
      <point x="454" y="267"/>
      <point x="453" y="279"/>
      <point x="450" y="290" type="curve" smooth="yes"/>
      <point x="447" y="303"/>
      <point x="437" y="332"/>
      <point x="437" y="334" type="curve" smooth="yes"/>
      <point x="437" y="336"/>
      <point x="438" y="337"/>
      <point x="440" y="337" type="curve" smooth="yes"/>
      <point x="441" y="337"/>
      <point x="443" y="337"/>
      <point x="445" y="336" type="curve" smooth="yes"/>
      <point x="522" y="292"/>
      <point x="577" y="237"/>
      <point x="633" y="181" type="curve"/>
      <point x="637" y="177"/>
      <point x="649" y="165"/>
      <point x="653" y="165" type="curve" smooth="yes"/>
      <point x="657" y="165"/>
      <point x="661" y="169"/>
      <point x="663" y="177" type="curve" smooth="yes"/>
      <point x="669" y="202"/>
      <point x="681" y="259"/>
      <point x="681" y="276" type="curve" smooth="yes"/>
      <point x="681" y="282"/>
      <point x="677" y="289"/>
      <point x="674" y="293" type="curve" smooth="yes"/>
      <point x="655" y="317"/>
      <point x="632" y="342"/>
      <point x="612" y="362" type="curve" smooth="yes"/>
      <point x="611" y="363"/>
      <point x="610" y="366"/>
      <point x="610" y="367" type="curve" smooth="yes"/>
      <point x="610" y="370"/>
      <point x="612" y="374"/>
      <point x="613" y="377" type="curve" smooth="yes"/>
      <point x="623" y="401"/>
      <point x="649" y="450"/>
      <point x="649" y="495" type="curve" smooth="yes"/>
      <point x="649" y="551"/>
      <point x="636" y="573"/>
      <point x="625" y="593" type="curve" smooth="yes"/>
      <point x="623" y="597"/>
      <point x="618" y="603"/>
      <point x="612" y="603" type="curve" smooth="yes"/>
      <point x="609" y="603"/>
      <point x="605" y="601"/>
    </contour>
  </outline>
</glyph>
<glyph name="bar" format="1">
  <advance width="326"/>
  <outline>
    <contour>
      <point x="124" y="-154" type="curve" smooth="yes"/>
      <point x="124" y="-162"/>
      <point x="126" y="-171"/>
      <point x="138" y="-171" type="curve" smooth="yes"/>
      <point x="187" y="-171" type="line" smooth="yes"/>
      <point x="198" y="-171"/>
      <point x="202" y="-163"/>
      <point x="202" y="-155" type="curve" smooth="yes"/>
      <point x="206" y="24"/>
      <point x="208" y="214"/>
      <point x="208" y="278" type="curve" smooth="yes"/>
      <point x="208" y="360"/>
      <point x="205" y="590"/>
      <point x="202" y="720" type="curve" smooth="yes"/>
      <point x="202" y="728"/>
      <point x="198" y="736"/>
      <point x="187" y="736" type="curve" smooth="yes"/>
      <point x="138" y="736" type="line" smooth="yes"/>
      <point x="126" y="736"/>
      <point x="124" y="727"/>
      <point x="124" y="719" type="curve" smooth="yes"/>
      <point x="120" y="592"/>
      <point x="117" y="360"/>
      <point x="117" y="278" type="curve" smooth="yes"/>
      <point x="117" y="214"/>
      <point x="121" y="0"/>
    </contour>
  </outline>
</glyph>
<glyph name="five.001" format="1">
  <advance width="500"/>
  <outline>
    <contour>
      <point x="133" y="145" type="curve" smooth="yes"/>
      <point x="136" y="148"/>
      <point x="139" y="151"/>
      <point x="146" y="151" type="curve" smooth="yes"/>
      <point x="150" y="151"/>
      <point x="156" y="150"/>
      <point x="163" y="148" type="curve" smooth="yes"/>
      <point x="180" y="140"/>
      <point x="208" y="129"/>
      <point x="238" y="129" type="curve" smooth="yes"/>
      <point x="277" y="129"/>
      <point x="295" y="152"/>
      <point x="295" y="174" type="curve" smooth="yes"/>
      <point x="295" y="187"/>
      <point x="291" y="206"/>
      <point x="274" y="218" type="curve" smooth="yes"/>
      <point x="260" y="228"/>
      <point x="240" y="230"/>
      <point x="207" y="230" type="curve" smooth="yes"/>
      <point x="141" y="230" type="line"/>
      <point x="121" y="230"/>
      <point x="111" y="238"/>
      <point x="108" y="259" type="curve" smooth="yes"/>
      <point x="99" y="314"/>
      <point x="98" y="371"/>
      <point x="98" y="460" type="curve" smooth="yes"/>
      <point x="98" y="497"/>
      <point x="132" y="570"/>
      <point x="169" y="602" type="curve" smooth="yes"/>
      <point x="174" y="606"/>
      <point x="177" y="608"/>
      <point x="181" y="608" type="curve" smooth="yes"/>
      <point x="189" y="608"/>
      <point x="191" y="600"/>
      <point x="193" y="596" type="curve" smooth="yes"/>
      <point x="199" y="577"/>
      <point x="205" y="573"/>
      <point x="225" y="573" type="curve" smooth="yes"/>
      <point x="408" y="573" type="line"/>
      <point x="424" y="573"/>
      <point x="432" y="568"/>
      <point x="432" y="555" type="curve" smooth="yes"/>
      <point x="432" y="526"/>
      <point x="405" y="458"/>
      <point x="391" y="435" type="curve" smooth="yes"/>
      <point x="385" y="425"/>
      <point x="380" y="423"/>
      <point x="355" y="423" type="curve" smooth="yes"/>
      <point x="245" y="423" type="line"/>
      <point x="235" y="423"/>
      <point x="230" y="419"/>
      <point x="230" y="408" type="curve" smooth="yes"/>
      <point x="230" y="396"/>
      <point x="232" y="383"/>
      <point x="232" y="371" type="curve" smooth="yes"/>
      <point x="232" y="362"/>
      <point x="235" y="361"/>
      <point x="247" y="361" type="curve" smooth="yes"/>
      <point x="284" y="361" type="line"/>
      <point x="295" y="361"/>
      <point x="348" y="356"/>
      <point x="380" y="330" type="curve" smooth="yes"/>
      <point x="409" y="306"/>
      <point x="435" y="266"/>
      <point x="435" y="212" type="curve" smooth="yes"/>
      <point x="435" y="141"/>
      <point x="387" y="71"/>
      <point x="364" y="46" type="curve" smooth="yes"/>
      <point x="319" y="-5"/>
      <point x="265" y="-18"/>
      <point x="220" y="-18" type="curve" smooth="yes"/>
      <point x="168" y="-18"/>
      <point x="114" y="1"/>
      <point x="84" y="13" type="curve" smooth="yes"/>
      <point x="72" y="18"/>
      <point x="70" y="22"/>
      <point x="70" y="26" type="curve" smooth="yes"/>
      <point x="70" y="37"/>
      <point x="114" y="125"/>
    </contour>
  </outline>
</glyph>
<glyph name="one.001" format="1">
  <advance width="500"/>
  <outline>
    <contour>
      <point x="110" y="149" type="curve" smooth="yes"/>
      <point x="115" y="155"/>
      <point x="120" y="159"/>
      <point x="131" y="159" type="curve" smooth="yes"/>
      <point x="190" y="159" type="line"/>
      <point x="202" y="159"/>
      <point x="204" y="170"/>
      <point x="204" y="177" type="curve" smooth="yes"/>
      <point x="204" y="219"/>
      <point x="202" y="297"/>
      <point x="200" y="341" type="curve" smooth="yes"/>
      <point x="199" y="367"/>
      <point x="197" y="417"/>
      <point x="166" y="435" type="curve" smooth="yes"/>
      <point x="149" y="445"/>
      <point x="111" y="452"/>
      <point x="99" y="454" type="curve" smooth="yes"/>
      <point x="90" y="457"/>
      <point x="86" y="460"/>
      <point x="86" y="471" type="curve" smooth="yes"/>
      <point x="86" y="483"/>
      <point x="93" y="494"/>
      <point x="109" y="508" type="curve" smooth="yes"/>
      <point x="138" y="536"/>
      <point x="174" y="564"/>
      <point x="215" y="586" type="curve" smooth="yes"/>
      <point x="242" y="601"/>
      <point x="266" y="608"/>
      <point x="285" y="608" type="curve" smooth="yes"/>
      <point x="308" y="608"/>
      <point x="324" y="593"/>
      <point x="329" y="567" type="curve" smooth="yes"/>
      <point x="340" y="508"/>
      <point x="340" y="454"/>
      <point x="340" y="395" type="curve" smooth="yes"/>
      <point x="340" y="260"/>
      <point x="347" y="214"/>
      <point x="348" y="184" type="curve" smooth="yes"/>
      <point x="350" y="165"/>
      <point x="370" y="158"/>
      <point x="385" y="158" type="curve" smooth="yes"/>
      <point x="451" y="158" type="line"/>
      <point x="459" y="158"/>
      <point x="468" y="152"/>
      <point x="468" y="143" type="curve" smooth="yes"/>
      <point x="468" y="138"/>
      <point x="465" y="127"/>
      <point x="461" y="120" type="curve" smooth="yes"/>
      <point x="449" y="93"/>
      <point x="426" y="29"/>
      <point x="412" y="10" type="curve" smooth="yes"/>
      <point x="406" y="2"/>
      <point x="399" y="0"/>
      <point x="386" y="0" type="curve" smooth="yes"/>
      <point x="76" y="0" type="line"/>
      <point x="62" y="0"/>
      <point x="53" y="6"/>
      <point x="53" y="15" type="curve" smooth="yes"/>
      <point x="53" y="35"/>
      <point x="100" y="134"/>
    </contour>
  </outline>
</glyph>
<glyph name="shekel.salt" format="1">
  <advance width="567"/>
  <outline>
    <contour>
      <point x="16" y="310" type="curve" smooth="yes"/>
      <point x="29" y="331"/>
      <point x="64" y="374"/>
      <point x="88" y="402" type="curve" smooth="yes"/>
      <point x="95" y="410"/>
      <point x="105" y="413"/>
      <point x="108" y="413" type="curve" smooth="yes"/>
      <point x="112" y="413"/>
      <point x="121" y="407"/>
      <point x="125" y="399" type="curve" smooth="yes"/>
      <point x="139" y="370"/>
      <point x="140" y="356"/>
      <point x="146" y="329" type="curve" smooth="yes"/>
      <point x="148" y="320"/>
      <point x="158" y="320"/>
      <point x="167" y="320" type="curve" smooth="yes"/>
      <point x="207" y="320"/>
      <point x="258" y="328"/>
      <point x="280" y="342" type="curve" smooth="yes"/>
      <point x="291" y="349"/>
      <point x="303" y="366"/>
      <point x="303" y="382" type="curve" smooth="yes"/>
      <point x="303" y="408"/>
      <point x="288" y="433"/>
      <point x="261" y="433" type="curve"/>
      <point x="83" y="433" type="line"/>
      <point x="33" y="433"/>
      <point x="-4" y="478"/>
      <point x="-4" y="529" type="curve" smooth="yes"/>
      <point x="-4" y="575"/>
      <point x="29" y="642"/>
      <point x="92" y="693" type="curve" smooth="yes"/>
      <point x="155" y="744"/>
      <point x="264" y="777"/>
      <point x="346" y="777" type="curve" smooth="yes"/>
      <point x="355" y="777"/>
      <point x="363" y="772"/>
      <point x="363" y="766" type="curve" smooth="yes"/>
      <point x="363" y="756"/>
      <point x="360" y="750"/>
      <point x="356" y="743" type="curve" smooth="yes"/>
      <point x="337" y="710"/>
      <point x="321" y="687"/>
      <point x="300" y="661" type="curve" smooth="yes"/>
      <point x="287" y="645"/>
      <point x="272" y="638"/>
      <point x="260" y="638" type="curve" smooth="yes"/>
      <point x="240" y="638"/>
      <point x="168" y="636"/>
      <point x="145" y="628" type="curve" smooth="yes"/>
      <point x="126" y="621"/>
      <point x="110" y="604"/>
      <point x="110" y="588" type="curve" smooth="yes"/>
      <point x="110" y="568"/>
      <point x="131" y="566"/>
      <point x="152" y="566" type="curve" smooth="yes"/>
      <point x="296" y="566" type="line" smooth="yes"/>
      <point x="379" y="566"/>
      <point x="407" y="529"/>
      <point x="407" y="455" type="curve" smooth="yes"/>
      <point x="407" y="367"/>
      <point x="352" y="273"/>
      <point x="297" y="234" type="curve" smooth="yes"/>
      <point x="265" y="211"/>
      <point x="209" y="190"/>
      <point x="175" y="190" type="curve" smooth="yes"/>
      <point x="170" y="190"/>
      <point x="169" y="186"/>
      <point x="169" y="180" type="curve"/>
      <point x="176" y="149" type="line" smooth="yes"/>
      <point x="178" y="139"/>
      <point x="180" y="137"/>
      <point x="184" y="135" type="curve" smooth="yes"/>
      <point x="184" y="135"/>
      <point x="185" y="135"/>
      <point x="185" y="135" type="curve" smooth="yes"/>
      <point x="191" y="132"/>
      <point x="198" y="132"/>
      <point x="206" y="132" type="curve" smooth="yes"/>
      <point x="275" y="132"/>
      <point x="320" y="145"/>
      <point x="348" y="160" type="curve" smooth="yes"/>
      <point x="432" y="205"/>
      <point x="454" y="254"/>
      <point x="454" y="317" type="curve" smooth="yes"/>
      <point x="454" y="328"/>
      <point x="450" y="348"/>
      <point x="445" y="366" type="curve" smooth="yes"/>
      <point x="439" y="387"/>
      <point x="438" y="388"/>
      <point x="438" y="399" type="curve" smooth="yes"/>
      <point x="438" y="405"/>
      <point x="440" y="410"/>
      <point x="447" y="428" type="curve" smooth="yes"/>
      <point x="469" y="482"/>
      <point x="497" y="534"/>
      <point x="520" y="570" type="curve" smooth="yes"/>
      <point x="529" y="584"/>
      <point x="538" y="594"/>
      <point x="547" y="594" type="curve" smooth="yes"/>
      <point x="554" y="594"/>
      <point x="557" y="591"/>
      <point x="561" y="582" type="curve" smooth="yes"/>
      <point x="573" y="556"/>
      <point x="579" y="508"/>
      <point x="579" y="460" type="curve" smooth="yes"/>
      <point x="579" y="421"/>
      <point x="569" y="355"/>
      <point x="554" y="298" type="curve" smooth="yes"/>
      <point x="534" y="224"/>
      <point x="501" y="151"/>
      <point x="456" y="96" type="curve" smooth="yes"/>
      <point x="418" y="49"/>
      <point x="371" y="27"/>
      <point x="324" y="8" type="curve" smooth="yes"/>
      <point x="279" y="-10"/>
      <point x="223" y="-22"/>
      <point x="171" y="-22" type="curve" smooth="yes"/>
      <point x="74" y="-22"/>
      <point x="56" y="42"/>
      <point x="50" y="127" type="curve" smooth="yes"/>
      <point x="48" y="158"/>
      <point x="34" y="215"/>
      <point x="15" y="256" type="curve" smooth="yes"/>
      <point x="9" y="269"/>
      <point x="5" y="275"/>
      <point x="5" y="282" type="curve" smooth="yes"/>
      <point x="5" y="291"/>
      <point x="10" y="301"/>
    </contour>
  </outline>
</glyph>
<glyph name="three.001" format="1">
  <advance width="500"/>
  <outline>
    <contour>
      <point x="64" y="48" type="curve" smooth="yes"/>
      <point x="78" y="76"/>
      <point x="114" y="129"/>
      <point x="125" y="140" type="curve" smooth="yes"/>
      <point x="131" y="146"/>
      <point x="134" y="150"/>
      <point x="141" y="150" type="curve" smooth="yes"/>
      <point x="145" y="150"/>
      <point x="151" y="147"/>
      <point x="157" y="144" type="curve" smooth="yes"/>
      <point x="169" y="137"/>
      <point x="193" y="125"/>
      <point x="221" y="125" type="curve" smooth="yes"/>
      <point x="248" y="125"/>
      <point x="287" y="135"/>
      <point x="287" y="165" type="curve" smooth="yes"/>
      <point x="287" y="191"/>
      <point x="261" y="218"/>
      <point x="235" y="225" type="curve" smooth="yes"/>
      <point x="215" y="231"/>
      <point x="188" y="235"/>
      <point x="169" y="235" type="curve" smooth="yes"/>
      <point x="157" y="235"/>
      <point x="151" y="238"/>
      <point x="151" y="250" type="curve" smooth="yes"/>
      <point x="151" y="274"/>
      <point x="181" y="334"/>
      <point x="221" y="359" type="curve" smooth="yes"/>
      <point x="247" y="375"/>
      <point x="266" y="388"/>
      <point x="266" y="415" type="curve" smooth="yes"/>
      <point x="266" y="440"/>
      <point x="243" y="454"/>
      <point x="219" y="462" type="curve" smooth="yes"/>
      <point x="191" y="470"/>
      <point x="135" y="472"/>
      <point x="115" y="472" type="curve" smooth="yes"/>
      <point x="106" y="472"/>
      <point x="100" y="474"/>
      <point x="100" y="483" type="curve" smooth="yes"/>
      <point x="100" y="493"/>
      <point x="144" y="577"/>
      <point x="161" y="594" type="curve" smooth="yes"/>
      <point x="166" y="599"/>
      <point x="170" y="603"/>
      <point x="179" y="603" type="curve" smooth="yes"/>
      <point x="266" y="603"/>
      <point x="392" y="571"/>
      <point x="392" y="465" type="curve" smooth="yes"/>
      <point x="392" y="410"/>
      <point x="351" y="366"/>
      <point x="332" y="346" type="curve" smooth="yes"/>
      <point x="328" y="342"/>
      <point x="327" y="339"/>
      <point x="327" y="337" type="curve" smooth="yes"/>
      <point x="327" y="333"/>
      <point x="331" y="332"/>
      <point x="333" y="330" type="curve" smooth="yes"/>
      <point x="352" y="318"/>
      <point x="427" y="287"/>
      <point x="427" y="201" type="curve" smooth="yes"/>
      <point x="427" y="130"/>
      <point x="382" y="71"/>
      <point x="345" y="36" type="curve" smooth="yes"/>
      <point x="305" y="-3"/>
      <point x="232" y="-18"/>
      <point x="194" y="-18" type="curve" smooth="yes"/>
      <point x="156" y="-18"/>
      <point x="112" y="-7"/>
      <point x="71" y="18" type="curve" smooth="yes"/>
      <point x="66" y="21"/>
      <point x="59" y="25"/>
      <point x="59" y="32" type="curve" smooth="yes"/>
      <point x="59" y="36"/>
      <point x="61" y="42"/>
    </contour>
  </outline>
</glyph>
